<?xml version="1.0" encoding="UTF-8" standalone="no"?>
<!-- Created with Inkscape (http://www.inkscape.org/) -->

<svg
   xmlns:dc="http://purl.org/dc/elements/1.1/"
   xmlns:cc="http://creativecommons.org/ns#"
   xmlns:rdf="http://www.w3.org/1999/02/22-rdf-syntax-ns#"
   xmlns:svg="http://www.w3.org/2000/svg"
   xmlns="http://www.w3.org/2000/svg"
   xmlns:sodipodi="http://sodipodi.sourceforge.net/DTD/sodipodi-0.dtd"
   xmlns:inkscape="http://www.inkscape.org/namespaces/inkscape"
   version="1.1"
   id="svg815"
   xml:space="preserve"
   width="960"
   height="768"
   viewBox="0 0 960 768"
   sodipodi:docname="tmax_north_south.svg"
   inkscape:version="0.92.3 (2405546, 2018-03-11)"><metadata
     id="metadata821"><rdf:RDF><cc:Work
         rdf:about=""><dc:format>image/svg+xml</dc:format><dc:type
           rdf:resource="http://purl.org/dc/dcmitype/StillImage" /><dc:title></dc:title></cc:Work></rdf:RDF></metadata><defs
     id="defs819"><clipPath
       clipPathUnits="userSpaceOnUse"
       id="clipPath857"><path
         d="M 180,288 H 540 V 576 H 180 Z"
         id="path855"
         inkscape:connector-curvature="0" /></clipPath><clipPath
       clipPathUnits="userSpaceOnUse"
       id="clipPath869"><path
         d="M 229.17,338.33 H 525.83 V 528.62 H 229.17 Z"
         id="path867"
         inkscape:connector-curvature="0" /></clipPath><clipPath
       clipPathUnits="userSpaceOnUse"
       id="clipPath1109"><path
         d="M 0,0 H 360 V 288 H 0 Z"
         id="path1107"
         inkscape:connector-curvature="0" /></clipPath><clipPath
       clipPathUnits="userSpaceOnUse"
       id="clipPath1121"><path
         d="M 49.17,50.33 H 345.83 V 240.62 H 49.17 Z"
         id="path1119"
         inkscape:connector-curvature="0" /></clipPath><clipPath
       clipPathUnits="userSpaceOnUse"
       id="clipPath1361"><path
         d="M 360,0 H 720 V 288 H 360 Z"
         id="path1359"
         inkscape:connector-curvature="0" /></clipPath><clipPath
       clipPathUnits="userSpaceOnUse"
       id="clipPath1373"><path
         d="M 409.17,50.33 H 705.83 V 240.62 H 409.17 Z"
         id="path1371"
         inkscape:connector-curvature="0" /></clipPath></defs><sodipodi:namedview
     pagecolor="#ffffff"
     bordercolor="#666666"
     borderopacity="1"
     objecttolerance="10"
     gridtolerance="10"
     guidetolerance="10"
     inkscape:pageopacity="0"
     inkscape:pageshadow="2"
     inkscape:window-width="1842"
     inkscape:window-height="1171"
     id="namedview817"
     showgrid="false"
     inkscape:zoom="1.2213542"
     inkscape:cx="480"
     inkscape:cy="121.99574"
     inkscape:window-x="-9"
     inkscape:window-y="-9"
     inkscape:window-maximized="1"
     inkscape:current-layer="g823" /><g
     id="g823"
     inkscape:groupmode="layer"
     inkscape:label="tmax_north_south"
     transform="matrix(1.3333333,0,0,-1.3333333,0,768)"><g
       id="g825" /><g
       id="g827" /><g
       id="g829" /><g
       id="g831" /><g
       id="g833" /><g
       id="g835" /><g
       id="g837" /><g
       id="g839" /><g
       id="g841" /><g
       id="g843" /><g
       id="g845" /><g
       id="g847" /><g
       id="g849" /><g
       id="g851"><g
         id="g853"
         clip-path="url(#clipPath857)"><path
           d="M 180,288 H 540 V 576 H 180 Z"
           style="fill:#ffffff;fill-opacity:1;fill-rule:nonzero;stroke:none"
           id="path859"
           inkscape:connector-curvature="0" /></g></g><g
       id="g861" /><g
       id="g863"><g
         id="g865"
         clip-path="url(#clipPath869)"><path
           d="M 229.17,338.33 H 525.83 V 528.62 H 229.17 Z"
           style="fill:#ffffff;fill-opacity:1;fill-rule:nonzero;stroke:none"
           id="path871"
           inkscape:connector-curvature="0" /><path
           d="M 229.17,496.6 H 525.83"
           style="fill:none;stroke:#7f7f7f;stroke-width:1.07000005;stroke-linecap:butt;stroke-linejoin:round;stroke-miterlimit:10;stroke-dasharray:4.27, 4.27;stroke-dashoffset:0;stroke-opacity:1"
           id="path873"
           inkscape:connector-curvature="0" /><path
           d="m 259.51,476.16 33.71,-18.6 33.71,11.54 33.71,20.48 33.71,7.02 33.71,-1.86 33.72,-38.82 33.71,-76.49"
           style="fill:none;stroke:#4dbbd5;stroke-width:2.13000011;stroke-linecap:butt;stroke-linejoin:round;stroke-miterlimit:10;stroke-dasharray:none;stroke-opacity:1"
           id="path875"
           inkscape:connector-curvature="0" /><path
           d="m 259.51,493.51 33.71,-22.16 33.71,6.12 33.71,17.44 33.71,1.69 33.71,1.33 33.72,-37.24 33.71,-70.51 v -21.51 l -33.71,82.48 -33.72,40.4 -33.71,5.05 -33.71,-12.35 -33.71,-23.51 -33.71,-16.98 -33.71,15.06 z"
           style="fill:#4dbbd5;fill-opacity:0.30199998;fill-rule:nonzero;stroke:none"
           id="path877"
           inkscape:connector-curvature="0" /><path
           d="m 255.95,476.16 c 0,1.96 1.6,3.56 3.56,3.56 1.95,0 3.55,-1.6 3.55,-3.56 0,-1.95 -1.6,-3.55 -3.55,-3.55 -1.96,0 -3.56,1.6 -3.56,3.55"
           style="fill:#4dbbd5;fill-opacity:1;fill-rule:nonzero;stroke:#4dbbd5;stroke-width:0.70999998;stroke-linecap:round;stroke-linejoin:round;stroke-miterlimit:10;stroke-dasharray:none;stroke-opacity:1"
           id="path879"
           inkscape:connector-curvature="0" /><path
           d="m 289.66,457.56 c 0,1.95 1.6,3.55 3.56,3.55 1.96,0 3.56,-1.6 3.56,-3.55 0,-1.96 -1.6,-3.56 -3.56,-3.56 -1.96,0 -3.56,1.6 -3.56,3.56"
           style="fill:#4dbbd5;fill-opacity:1;fill-rule:nonzero;stroke:#4dbbd5;stroke-width:0.70999998;stroke-linecap:round;stroke-linejoin:round;stroke-miterlimit:10;stroke-dasharray:none;stroke-opacity:1"
           id="path881"
           inkscape:connector-curvature="0" /><path
           d="m 323.38,469.1 c 0,1.96 1.6,3.56 3.55,3.56 1.96,0 3.56,-1.6 3.56,-3.56 0,-1.95 -1.6,-3.55 -3.56,-3.55 -1.95,0 -3.55,1.6 -3.55,3.55"
           style="fill:#4dbbd5;fill-opacity:1;fill-rule:nonzero;stroke:#4dbbd5;stroke-width:0.70999998;stroke-linecap:round;stroke-linejoin:round;stroke-miterlimit:10;stroke-dasharray:none;stroke-opacity:1"
           id="path883"
           inkscape:connector-curvature="0" /><path
           d="m 357.09,489.58 c 0,1.96 1.6,3.56 3.55,3.56 1.96,0 3.56,-1.6 3.56,-3.56 0,-1.95 -1.6,-3.55 -3.56,-3.55 -1.95,0 -3.55,1.6 -3.55,3.55"
           style="fill:#4dbbd5;fill-opacity:1;fill-rule:nonzero;stroke:#4dbbd5;stroke-width:0.70999998;stroke-linecap:round;stroke-linejoin:round;stroke-miterlimit:10;stroke-dasharray:none;stroke-opacity:1"
           id="path885"
           inkscape:connector-curvature="0" /><path
           d="m 390.8,496.6 c 0,1.95 1.6,3.55 3.55,3.55 1.96,0 3.56,-1.6 3.56,-3.55 0,-1.96 -1.6,-3.56 -3.56,-3.56 -1.95,0 -3.55,1.6 -3.55,3.56"
           style="fill:#4dbbd5;fill-opacity:1;fill-rule:nonzero;stroke:#4dbbd5;stroke-width:0.70999998;stroke-linecap:round;stroke-linejoin:round;stroke-miterlimit:10;stroke-dasharray:none;stroke-opacity:1"
           id="path887"
           inkscape:connector-curvature="0" /><path
           d="m 424.51,494.74 c 0,1.96 1.6,3.56 3.55,3.56 1.96,0 3.56,-1.6 3.56,-3.56 0,-1.95 -1.6,-3.55 -3.56,-3.55 -1.95,0 -3.55,1.6 -3.55,3.55"
           style="fill:#4dbbd5;fill-opacity:1;fill-rule:nonzero;stroke:#4dbbd5;stroke-width:0.70999998;stroke-linecap:round;stroke-linejoin:round;stroke-miterlimit:10;stroke-dasharray:none;stroke-opacity:1"
           id="path889"
           inkscape:connector-curvature="0" /><path
           d="m 458.22,455.92 c 0,1.96 1.6,3.56 3.56,3.56 1.95,0 3.55,-1.6 3.55,-3.56 0,-1.96 -1.6,-3.56 -3.55,-3.56 -1.96,0 -3.56,1.6 -3.56,3.56"
           style="fill:#4dbbd5;fill-opacity:1;fill-rule:nonzero;stroke:#4dbbd5;stroke-width:0.70999998;stroke-linecap:round;stroke-linejoin:round;stroke-miterlimit:10;stroke-dasharray:none;stroke-opacity:1"
           id="path891"
           inkscape:connector-curvature="0" /><path
           d="m 491.93,379.43 c 0,1.95 1.6,3.55 3.56,3.55 1.95,0 3.55,-1.6 3.55,-3.55 0,-1.96 -1.6,-3.56 -3.55,-3.56 -1.96,0 -3.56,1.6 -3.56,3.56"
           style="fill:#4dbbd5;fill-opacity:1;fill-rule:nonzero;stroke:#4dbbd5;stroke-width:0.70999998;stroke-linecap:round;stroke-linejoin:round;stroke-miterlimit:10;stroke-dasharray:none;stroke-opacity:1"
           id="path893"
           inkscape:connector-curvature="0" /><text
           transform="matrix(1,0,0,-1,275.19,513.55)"
           style="font-variant:normal;font-weight:normal;font-size:14px;font-family:Helvetica;-inkscape-font-specification:Helvetica;writing-mode:lr-tb;fill:#7f7f7f;fill-opacity:1;fill-rule:nonzero;stroke:none"
           id="text897"><tspan
             x="0 10.108 17.892 25.676001 32.675999 35.784 39.675999 46.675999 50.568001 58.352001 62.243999 66.136002 77.797997 85.582001 92.582001 96.473999 100.366 104.258 112.042 123.704 131.48801 139.272 143.79401 151.578 155.47 163.254 167.916 175.7 179.592 184.254 189.854 199.96201"
             y="0"
             sodipodi:role="line"
             id="tspan895">Density of max. temperature (°C)</tspan></text>
<text
           transform="matrix(1,0,0,-1,248.63,356.33)"
           style="font-variant:normal;font-weight:normal;font-size:17px;font-family:Helvetica;-inkscape-font-specification:Helvetica;writing-mode:lr-tb;fill:#404040;fill-opacity:1;fill-rule:nonzero;stroke:none"
           id="text901"><tspan
             x="0 16.048 25.5 34.952 38.726002 48.178001 52.903999 65.178001 74.629997 78.403999 87.856003"
             y="0"
             sodipodi:role="line"
             id="tspan899">Whole China</tspan></text>
</g></g><g
       id="g903" /><g
       id="g905" /><g
       id="g907" /><g
       id="g909" /><g
       id="g911" /><g
       id="g913" /><g
       id="g915" /><g
       id="g917" /><g
       id="g919" /><g
       id="g921" /><g
       id="g923" /><g
       id="g925" /><g
       id="g927"><path
         d="M 229.17,338.33 V 528.62"
         style="fill:none;stroke:#000000;stroke-width:1.36000001;stroke-linecap:butt;stroke-linejoin:round;stroke-miterlimit:10;stroke-dasharray:none;stroke-opacity:1"
         id="path929"
         inkscape:connector-curvature="0" /></g><g
       id="g931" /><g
       id="g933" /><g
       id="g935"><text
         transform="matrix(1,0,0,-1,210.35,352.38)"
         style="font-variant:normal;font-weight:normal;font-size:11px;font-family:Helvetica;-inkscape-font-specification:Helvetica;writing-mode:lr-tb;fill:#000000;fill-opacity:1;fill-rule:nonzero;stroke:none"
         id="text939"><tspan
           x="0 6.4239998"
           y="0"
           sodipodi:role="line"
           id="tspan937">−3</tspan></text>
<text
         transform="matrix(1,0,0,-1,210.35,399.14)"
         style="font-variant:normal;font-weight:normal;font-size:11px;font-family:Helvetica;-inkscape-font-specification:Helvetica;writing-mode:lr-tb;fill:#000000;fill-opacity:1;fill-rule:nonzero;stroke:none"
         id="text943"><tspan
           x="0 6.4239998"
           y="0"
           sodipodi:role="line"
           id="tspan941">−2</tspan></text>
<text
         transform="matrix(1,0,0,-1,210.35,445.89)"
         style="font-variant:normal;font-weight:normal;font-size:11px;font-family:Helvetica;-inkscape-font-specification:Helvetica;writing-mode:lr-tb;fill:#000000;fill-opacity:1;fill-rule:nonzero;stroke:none"
         id="text947"><tspan
           x="0 6.4239998"
           y="0"
           sodipodi:role="line"
           id="tspan945">−1</tspan></text>
<text
         transform="matrix(1,0,0,-1,216.78,492.65)"
         style="font-variant:normal;font-weight:normal;font-size:11px;font-family:Helvetica;-inkscape-font-specification:Helvetica;writing-mode:lr-tb;fill:#000000;fill-opacity:1;fill-rule:nonzero;stroke:none"
         id="text951"><tspan
           x="0"
           y="0"
           id="tspan949">0</tspan></text>
</g><g
       id="g953" /><g
       id="g955"><path
         d="m 225.68,356.33 h 3.49"
         style="fill:none;stroke:#000000;stroke-width:1.36000001;stroke-linecap:butt;stroke-linejoin:round;stroke-miterlimit:10;stroke-dasharray:none;stroke-opacity:1"
         id="path957"
         inkscape:connector-curvature="0" /><path
         d="m 225.68,403.09 h 3.49"
         style="fill:none;stroke:#000000;stroke-width:1.36000001;stroke-linecap:butt;stroke-linejoin:round;stroke-miterlimit:10;stroke-dasharray:none;stroke-opacity:1"
         id="path959"
         inkscape:connector-curvature="0" /><path
         d="m 225.68,449.84 h 3.49"
         style="fill:none;stroke:#000000;stroke-width:1.36000001;stroke-linecap:butt;stroke-linejoin:round;stroke-miterlimit:10;stroke-dasharray:none;stroke-opacity:1"
         id="path961"
         inkscape:connector-curvature="0" /><path
         d="m 225.68,496.6 h 3.49"
         style="fill:none;stroke:#000000;stroke-width:1.36000001;stroke-linecap:butt;stroke-linejoin:round;stroke-miterlimit:10;stroke-dasharray:none;stroke-opacity:1"
         id="path963"
         inkscape:connector-curvature="0" /></g><g
       id="g965" /><g
       id="g967" /><g
       id="g969" /><g
       id="g971" /><g
       id="g973" /><g
       id="g975" /><g
       id="g977"><path
         d="M 229.17,338.33 H 525.83"
         style="fill:none;stroke:#000000;stroke-width:1.36000001;stroke-linecap:butt;stroke-linejoin:round;stroke-miterlimit:10;stroke-dasharray:none;stroke-opacity:1"
         id="path979"
         inkscape:connector-curvature="0" /></g><g
       id="g981" /><g
       id="g983" /><g
       id="g985"><path
         d="m 242.65,334.84 v 3.49"
         style="fill:none;stroke:#000000;stroke-width:1.36000001;stroke-linecap:butt;stroke-linejoin:round;stroke-miterlimit:10;stroke-dasharray:none;stroke-opacity:1"
         id="path987"
         inkscape:connector-curvature="0" /><path
         d="m 310.08,334.84 v 3.49"
         style="fill:none;stroke:#000000;stroke-width:1.36000001;stroke-linecap:butt;stroke-linejoin:round;stroke-miterlimit:10;stroke-dasharray:none;stroke-opacity:1"
         id="path989"
         inkscape:connector-curvature="0" /><path
         d="m 377.5,334.84 v 3.49"
         style="fill:none;stroke:#000000;stroke-width:1.36000001;stroke-linecap:butt;stroke-linejoin:round;stroke-miterlimit:10;stroke-dasharray:none;stroke-opacity:1"
         id="path991"
         inkscape:connector-curvature="0" /><path
         d="m 444.92,334.84 v 3.49"
         style="fill:none;stroke:#000000;stroke-width:1.36000001;stroke-linecap:butt;stroke-linejoin:round;stroke-miterlimit:10;stroke-dasharray:none;stroke-opacity:1"
         id="path993"
         inkscape:connector-curvature="0" /><path
         d="m 512.34,334.84 v 3.49"
         style="fill:none;stroke:#000000;stroke-width:1.36000001;stroke-linecap:butt;stroke-linejoin:round;stroke-miterlimit:10;stroke-dasharray:none;stroke-opacity:1"
         id="path995"
         inkscape:connector-curvature="0" /></g><g
       id="g997" /><g
       id="g999"><text
         transform="matrix(1,0,0,-1,239.6,324.16)"
         style="font-variant:normal;font-weight:normal;font-size:11px;font-family:Helvetica;-inkscape-font-specification:Helvetica;writing-mode:lr-tb;fill:#000000;fill-opacity:1;fill-rule:nonzero;stroke:none"
         id="text1003"><tspan
           x="0"
           y="0"
           id="tspan1001">0</tspan></text>
<text
         transform="matrix(1,0,0,-1,303.96,324.16)"
         style="font-variant:normal;font-weight:normal;font-size:11px;font-family:Helvetica;-inkscape-font-specification:Helvetica;writing-mode:lr-tb;fill:#000000;fill-opacity:1;fill-rule:nonzero;stroke:none"
         id="text1007"><tspan
           x="0 6.1160002"
           y="0"
           sodipodi:role="line"
           id="tspan1005">10</tspan></text>
<text
         transform="matrix(1,0,0,-1,371.38,324.16)"
         style="font-variant:normal;font-weight:normal;font-size:11px;font-family:Helvetica;-inkscape-font-specification:Helvetica;writing-mode:lr-tb;fill:#000000;fill-opacity:1;fill-rule:nonzero;stroke:none"
         id="text1011"><tspan
           x="0 6.1160002"
           y="0"
           sodipodi:role="line"
           id="tspan1009">20</tspan></text>
<text
         transform="matrix(1,0,0,-1,438.8,324.16)"
         style="font-variant:normal;font-weight:normal;font-size:11px;font-family:Helvetica;-inkscape-font-specification:Helvetica;writing-mode:lr-tb;fill:#000000;fill-opacity:1;fill-rule:nonzero;stroke:none"
         id="text1015"><tspan
           x="0 6.1160002"
           y="0"
           sodipodi:role="line"
           id="tspan1013">30</tspan></text>
<text
         transform="matrix(1,0,0,-1,506.23,324.16)"
         style="font-variant:normal;font-weight:normal;font-size:11px;font-family:Helvetica;-inkscape-font-specification:Helvetica;writing-mode:lr-tb;fill:#000000;fill-opacity:1;fill-rule:nonzero;stroke:none"
         id="text1019"><tspan
           x="0 6.1160002"
           y="0"
           sodipodi:role="line"
           id="tspan1017">40</tspan></text>
</g><g
       id="g1021" /><g
       id="g1023" /><g
       id="g1025" /><g
       id="g1027" /><g
       id="g1029" /><g
       id="g1031"><text
         transform="matrix(1,0,0,-1,308.25,304.54)"
         style="font-variant:normal;font-weight:normal;font-size:14px;font-family:Helvetica;-inkscape-font-specification:Helvetica;writing-mode:lr-tb;fill:#000000;fill-opacity:1;fill-rule:nonzero;stroke:none"
         id="text1035"><tspan
           x="0 11.662 19.445999 26.445999 30.337999 34.23 38.122002 45.905998 57.568001 65.351997 73.136002 77.657997 85.442001 89.334 97.117996 101.78 109.564 113.456"
           y="0"
           sodipodi:role="line"
           id="tspan1033">Max. temperature (</tspan></text>
<text
         transform="matrix(1,0,0,-1,426.37,304.54)"
         style="font-variant:normal;font-weight:normal;font-size:14px;font-family:Symbol;-inkscape-font-specification:Symbol;writing-mode:lr-tb;fill:#000000;fill-opacity:1;fill-rule:nonzero;stroke:none"
         id="text1039"><tspan
           x="0"
           y="0"
           id="tspan1037">°</tspan></text>
<text
         transform="matrix(1,0,0,-1,431.97,304.54)"
         style="font-variant:normal;font-weight:normal;font-size:14px;font-family:Helvetica;-inkscape-font-specification:Helvetica;writing-mode:lr-tb;fill:#000000;fill-opacity:1;fill-rule:nonzero;stroke:none"
         id="text1043"><tspan
           x="0"
           y="0"
           id="tspan1041">C</tspan></text>
<text
         transform="matrix(1,0,0,-1,442.08,304.54)"
         style="font-variant:normal;font-weight:normal;font-size:14px;font-family:Helvetica;-inkscape-font-specification:Helvetica;writing-mode:lr-tb;fill:#000000;fill-opacity:1;fill-rule:nonzero;stroke:none"
         id="text1047"><tspan
           x="0"
           y="0"
           id="tspan1045">)</tspan></text>
</g><g
       id="g1049" /><g
       id="g1051"><text
         transform="matrix(0,1,1,0,201.59,364.23)"
         style="font-variant:normal;font-weight:normal;font-size:14px;font-family:Helvetica;-inkscape-font-specification:Helvetica;writing-mode:lr-tb;fill:#000000;fill-opacity:1;fill-rule:nonzero;stroke:none"
         id="text1055"><tspan
           x="0 9.3380003 17.122 24.906 28.798 31.906 43.568001 51.352001 59.136002 63.028 66.919998 73.919998 81.704002 89.487999 97.272003 105.056 112.84 116.732 121.394 133.84"
           y="0"
           sodipodi:role="line"
           id="tspan1053">Sentiment change (%)</tspan></text>
</g><g
       id="g1057" /><g
       id="g1059" /><g
       id="g1061" /><g
       id="g1063" /><g
       id="g1065" /><g
       id="g1067" /><g
       id="g1069" /><g
       id="g1071" /><g
       id="g1073" /><g
       id="g1075" /><g
       id="g1077"><path
         d="m 229.17,529.94 0.58,0.09 0.58,0.1 0.58,0.09 0.58,0.1 0.58,0.09 0.58,0.1 0.58,0.09 0.58,0.09 0.58,0.09 0.58,0.09 0.58,0.09 0.59,0.08 0.58,0.08 0.58,0.08 0.58,0.08 0.58,0.08 0.58,0.07 0.58,0.07 0.58,0.07 0.58,0.07 0.58,0.07 0.58,0.07 0.58,0.06 0.58,0.07 0.58,0.06 0.58,0.06 0.58,0.06 0.58,0.07 0.58,0.06 0.58,0.06 0.59,0.07 0.58,0.06 0.58,0.06 0.58,0.07 0.58,0.06 0.58,0.07 0.58,0.06 0.58,0.07 0.58,0.07 0.58,0.06 0.58,0.07 0.58,0.07 0.58,0.07 0.58,0.06 0.58,0.07 0.58,0.07 0.58,0.07 0.58,0.06 0.59,0.07 0.58,0.07 0.58,0.06 0.58,0.07 0.58,0.07 0.58,0.07 0.58,0.06 0.58,0.07 0.58,0.07 0.58,0.07 0.58,0.06 0.58,0.07 0.58,0.07 0.58,0.07 0.58,0.07 0.58,0.07 0.58,0.07 0.58,0.07 0.59,0.07 0.58,0.07 0.58,0.07 0.58,0.08 0.58,0.07 0.58,0.07 0.58,0.08 0.58,0.07 0.58,0.08 0.58,0.07 0.58,0.08 0.58,0.07 0.58,0.08 0.58,0.07 0.58,0.08 0.58,0.07 0.58,0.08 0.58,0.07 0.58,0.08 0.59,0.07 0.58,0.07 0.58,0.08 0.58,0.07 0.58,0.07 0.58,0.07 0.58,0.07 0.58,0.07 0.58,0.07 0.58,0.06 0.58,0.07 0.58,0.06 0.58,0.07 0.58,0.06 0.58,0.06 0.58,0.06 0.58,0.06 0.58,0.06 0.59,0.05 0.58,0.06 0.58,0.05 0.58,0.05 0.58,0.06 0.58,0.05 0.58,0.05 0.58,0.05 0.58,0.05 0.58,0.04 0.58,0.05 0.58,0.04 0.58,0.05 0.58,0.04 0.58,0.04 0.58,0.04 0.58,0.04 0.58,0.03 0.59,0.04 0.58,0.03 0.58,0.03 0.58,0.03 0.58,0.03 0.58,0.03 0.58,0.03 0.58,0.02 0.58,0.03 0.58,0.02 0.58,0.02 0.58,0.02 0.58,0.01 0.58,0.02 0.58,0.01 0.58,0.01 0.58,0.02 0.58,0.01 h 0.58 l 0.59,0.01 h 0.58 l 0.58,0.01 h 0.58 0.58 0.58 l 0.58,-0.01 h 0.58 l 0.58,-0.01 0.58,-0.01 0.58,-0.01 0.58,-0.01 0.58,-0.01 0.58,-0.01 0.58,-0.02 0.58,-0.01 0.58,-0.01 0.58,-0.02 0.59,-0.01 0.58,-0.01 0.58,-0.02 0.58,-0.01 h 0.58 l 0.58,-0.01 0.58,-0.01 h 0.58 0.58 0.58 l 0.58,0.01 h 0.58 l 0.58,0.01 0.58,0.01 0.58,0.01 0.58,0.02 0.58,0.01 0.58,0.02 0.58,0.02 0.59,0.02 0.58,0.02 0.58,0.02 0.58,0.03 0.58,0.02 0.58,0.03 0.58,0.02 0.58,0.03 0.58,0.02 0.58,0.03 0.58,0.03 0.58,0.03 0.58,0.03 0.58,0.03 0.58,0.03 0.58,0.04 0.58,0.03 0.58,0.04 0.59,0.04 0.58,0.04 0.58,0.05 0.58,0.05 0.58,0.05 0.58,0.05 0.58,0.05 0.58,0.06 0.58,0.06 0.58,0.07 0.58,0.06 0.58,0.07 0.58,0.07 0.58,0.07 0.58,0.07 0.58,0.07 0.58,0.08 0.58,0.07 0.59,0.08 0.58,0.07 0.58,0.07 0.58,0.07 0.58,0.08 0.58,0.07 0.58,0.06 0.58,0.07 0.58,0.06 0.58,0.06 0.58,0.06 0.58,0.06 0.58,0.05 0.58,0.06 0.58,0.05 0.58,0.04 0.58,0.05 0.58,0.04 0.58,0.04 0.59,0.04 0.58,0.04 0.58,0.04 0.58,0.04 0.58,0.03 0.58,0.04 0.58,0.03 0.58,0.03 0.58,0.03 0.58,0.04 0.58,0.03 0.58,0.03 0.58,0.03 0.58,0.03 0.58,0.03 0.58,0.04 0.58,0.03 0.58,0.03 0.59,0.04 0.58,0.03 0.58,0.04 0.58,0.04 0.58,0.04 0.58,0.04 0.58,0.05 0.58,0.04 0.58,0.05 0.58,0.05 0.58,0.06 0.58,0.06 0.58,0.06 0.58,0.06 0.58,0.07 0.58,0.07 0.58,0.07 0.58,0.07 0.59,0.08 0.58,0.07 0.58,0.08 0.58,0.09 0.58,0.08 0.58,0.08 0.58,0.09 0.58,0.08 0.58,0.09 0.58,0.08 0.58,0.09 0.58,0.09 0.58,0.09 0.58,0.08 0.58,0.09 0.58,0.09 0.58,0.09 0.58,0.08 0.58,0.09 0.59,0.09 0.58,0.09 0.58,0.09 0.58,0.09 0.58,0.09 0.58,0.09 0.58,0.09 0.58,0.09 0.58,0.09 0.58,0.09 0.58,0.1 0.58,0.09 0.58,0.09 0.58,0.09 0.58,0.09 0.58,0.09 0.58,0.09 0.58,0.08 0.59,0.09 0.58,0.09 0.58,0.08 0.58,0.08 0.58,0.08 0.58,0.08 0.58,0.08 0.58,0.07 0.58,0.08 0.58,0.07 0.58,0.06 0.58,0.07 0.58,0.06 0.58,0.06 0.58,0.06 0.58,0.06 0.58,0.05 0.58,0.04 0.58,0.05 0.59,0.04 0.58,0.04 0.58,0.04 0.58,0.03 0.58,0.03 0.58,0.03 0.58,0.02 0.58,0.02 0.58,0.02 0.58,0.02 0.58,0.01 0.58,0.01 0.58,0.01 0.58,0.01 0.58,0.01 h 0.58 l 0.58,0.01 h 0.58 0.59 0.58 0.58 0.58 0.58 l 0.58,-0.01 0.58,-0.01 0.58,-0.01 0.58,-0.01 0.58,-0.02 0.58,-0.02 0.58,-0.02 0.58,-0.03 0.58,-0.03 0.58,-0.04 0.58,-0.04 0.58,-0.05 0.58,-0.06 0.59,-0.06 0.58,-0.06 0.58,-0.07 0.58,-0.09 0.58,-0.08 0.58,-0.1 0.58,-0.1 0.58,-0.1 0.58,-0.12 0.58,-0.12 0.58,-0.12 0.58,-0.13 0.58,-0.14 0.58,-0.14 0.58,-0.14 0.58,-0.15 0.58,-0.15 0.58,-0.15 0.58,-0.15 0.59,-0.16 0.58,-0.16 0.58,-0.15 0.58,-0.16 0.58,-0.16 0.58,-0.16 0.58,-0.16 0.58,-0.16 0.58,-0.15 0.58,-0.16 0.58,-0.15 0.58,-0.16 0.58,-0.15 0.58,-0.15 0.58,-0.15 0.58,-0.15 0.58,-0.15 0.58,-0.15 0.59,-0.14 0.58,-0.15 0.58,-0.14 0.58,-0.14 0.58,-0.14 0.58,-0.14 0.58,-0.13 0.58,-0.14 0.58,-0.13 0.58,-0.14 0.58,-0.13 0.58,-0.13 0.58,-0.13 0.58,-0.13 0.58,-0.13 0.58,-0.13 0.58,-0.13 0.58,-0.13 0.59,-0.14 0.58,-0.14 0.58,-0.14 0.58,-0.14 0.58,-0.15 0.58,-0.15 0.58,-0.16 0.58,-0.16 0.58,-0.16 0.58,-0.17 0.58,-0.17 0.58,-0.18 0.58,-0.18 0.58,-0.19 0.58,-0.19 0.58,-0.2 0.58,-0.2 0.58,-0.21 0.58,-0.2 0.59,-0.22 0.58,-0.21 0.58,-0.22 0.58,-0.22 0.58,-0.22 0.58,-0.22 0.58,-0.22 0.58,-0.23 0.58,-0.22 0.58,-0.23 0.58,-0.22 0.58,-0.22 0.58,-0.22 0.58,-0.22 0.58,-0.21 0.58,-0.22 0.58,-0.21 0.58,-0.2 0.59,-0.2 0.58,-0.2 0.58,-0.19 0.58,-0.19 0.58,-0.18 0.58,-0.18 0.58,-0.17 0.58,-0.17 0.58,-0.16 0.58,-0.15 0.58,-0.15 0.58,-0.14 0.58,-0.13 0.58,-0.13 0.58,-0.12 0.58,-0.11 0.58,-0.11 0.58,-0.11 0.58,-0.09 0.59,-0.1 0.58,-0.08 0.58,-0.08 0.58,-0.08 0.58,-0.07 0.58,-0.06 0.58,-0.06 0.58,-0.06 0.58,-0.05 0.58,-0.05 0.58,-0.05 0.58,-0.04 0.58,-0.04 0.58,-0.03 0.58,-0.03 0.58,-0.03 0.58,-0.03 0.58,-0.02 0.59,-0.02 0.58,-0.02 0.58,-0.02 0.58,-0.02 0.58,-0.01 0.58,-0.01 0.58,-0.02 0.58,-0.01 0.58,-0.01 0.58,-0.01 0.58,-0.01 0.58,-0.01 h 0.58 l 0.58,-0.01 0.58,-0.01 0.58,-0.01 h 0.58 l 0.58,-0.01 0.59,-0.01 h 0.58 l 0.58,-0.01 h 0.58 v -0.06 h -0.58 -0.58 -0.58 -0.59 -0.58 -0.58 -0.58 -0.58 -0.58 -0.58 -0.58 -0.58 -0.58 -0.58 -0.58 -0.58 -0.58 -0.58 -0.58 -0.58 -0.58 -0.59 -0.58 -0.58 -0.58 -0.58 -0.58 -0.58 -0.58 -0.58 -0.58 -0.58 -0.58 -0.58 -0.58 -0.58 -0.58 -0.58 -0.58 -0.59 -0.58 -0.58 -0.58 -0.58 -0.58 -0.58 -0.58 -0.58 -0.58 -0.58 -0.58 -0.58 -0.58 -0.58 -0.58 -0.58 -0.58 -0.58 -0.59 -0.58 -0.58 -0.58 -0.58 -0.58 -0.58 -0.58 -0.58 -0.58 -0.58 -0.58 -0.58 -0.58 -0.58 -0.58 -0.58 -0.58 -0.59 -0.58 -0.58 -0.58 -0.58 -0.58 -0.58 -0.58 -0.58 -0.58 -0.58 -0.58 -0.58 -0.58 -0.58 -0.58 -0.58 -0.58 -0.58 -0.59 -0.58 -0.58 -0.58 -0.58 -0.58 -0.58 -0.58 -0.58 -0.58 -0.58 -0.58 -0.58 -0.58 -0.58 -0.58 -0.58 -0.58 -0.59 -0.58 -0.58 -0.58 -0.58 -0.58 -0.58 -0.58 -0.58 -0.58 -0.58 -0.58 -0.58 -0.58 -0.58 -0.58 -0.58 -0.58 -0.59 -0.58 -0.58 -0.58 -0.58 -0.58 -0.58 -0.58 -0.58 -0.58 -0.58 -0.58 -0.58 -0.58 -0.58 -0.58 -0.58 -0.58 -0.58 -0.59 -0.58 -0.58 -0.58 -0.58 -0.58 -0.58 -0.58 -0.58 -0.58 -0.58 -0.58 -0.58 -0.58 -0.58 -0.58 -0.58 -0.58 -0.59 -0.58 -0.58 -0.58 -0.58 -0.58 -0.58 -0.58 -0.58 -0.58 -0.58 -0.58 -0.58 -0.58 -0.58 -0.58 -0.58 -0.58 -0.59 -0.58 -0.58 -0.58 -0.58 -0.58 -0.58 -0.58 -0.58 -0.58 -0.58 -0.58 -0.58 -0.58 -0.58 -0.58 -0.58 -0.58 -0.58 -0.59 -0.58 -0.58 -0.58 -0.58 -0.58 -0.58 -0.58 -0.58 -0.58 -0.58 -0.58 -0.58 -0.58 -0.58 -0.58 -0.58 -0.58 -0.59 -0.58 -0.58 -0.58 -0.58 -0.58 -0.58 -0.58 -0.58 -0.58 -0.58 -0.58 -0.58 -0.58 -0.58 -0.58 -0.58 -0.58 -0.58 -0.59 -0.58 -0.58 -0.58 -0.58 -0.58 -0.58 -0.58 -0.58 -0.58 -0.58 -0.58 -0.58 -0.58 -0.58 -0.58 -0.58 -0.58 -0.59 -0.58 -0.58 -0.58 -0.58 -0.58 -0.58 -0.58 -0.58 -0.58 -0.58 -0.58 -0.58 -0.58 -0.58 -0.58 -0.58 -0.58 -0.59 -0.58 -0.58 -0.58 -0.58 -0.58 -0.58 -0.58 -0.58 -0.58 -0.58 -0.58 -0.58 -0.58 -0.58 -0.58 -0.58 -0.58 -0.58 -0.59 -0.58 -0.58 -0.58 -0.58 -0.58 -0.58 -0.58 -0.58 -0.58 -0.58 -0.58 -0.58 -0.58 -0.58 -0.58 -0.58 -0.58 -0.59 -0.58 -0.58 -0.58 -0.58 -0.58 -0.58 -0.58 -0.58 -0.58 -0.58 -0.58 -0.58 -0.58 -0.58 -0.58 -0.58 -0.58 -0.59 -0.58 -0.58 -0.58 -0.58 -0.58 -0.58 -0.58 -0.58 -0.58 -0.58 -0.58 -0.58 -0.58 -0.58 -0.58 -0.58 -0.58 -0.58 -0.59 -0.58 -0.58 -0.58 -0.58 -0.58 -0.58 -0.58 -0.58 -0.58 -0.58 -0.58 -0.58 -0.58 -0.58 -0.58 -0.58 -0.58 -0.59 -0.58 -0.58 -0.58 -0.58 -0.58 -0.58 -0.58 -0.58 -0.58 -0.58 -0.58 -0.58 -0.58 -0.58 -0.58 -0.58 -0.58 -0.58 -0.59 -0.58 -0.58 -0.58 -0.58 -0.58 -0.58 -0.58 -0.58 -0.58 -0.58 -0.58 -0.58 -0.58 -0.58 -0.58 -0.58 -0.58 -0.59 -0.58 -0.58 -0.58 -0.58 -0.58 -0.58 -0.58 -0.58 -0.58 -0.58 -0.58 -0.58 -0.58 -0.58 -0.58 -0.58 -0.58 -0.59 -0.58 -0.58 -0.58 -0.58 -0.58 -0.58 -0.58 -0.58 -0.58 -0.58 -0.58 -0.58 -0.58 -0.58 -0.58 -0.58 -0.58 -0.58 -0.59 -0.58 -0.58 -0.58 -0.58 -0.58 -0.58 -0.58 -0.58 -0.58 -0.58 -0.58 -0.58 -0.58 -0.58 -0.58 -0.58 -0.58 -0.59 -0.58 -0.58 -0.58 -0.58 -0.58 -0.58 -0.58 -0.58 -0.58 -0.58 -0.58 -0.58 -0.58 -0.58 -0.58 -0.58 -0.58 -0.59 -0.58 -0.58 -0.58 -0.58 -0.58 -0.58 -0.58 -0.58 -0.58 -0.58 -0.58 -0.58 -0.58 -0.58 -0.58 -0.58 -0.58 -0.58 -0.59 -0.58 -0.58 -0.58 -0.58 -0.58 -0.58 -0.58 -0.58 -0.58 -0.58 -0.58 z"
         style="fill:#bfbfbf;fill-opacity:0.50199998;fill-rule:nonzero;stroke:#7f7f7f;stroke-width:1.07000005;stroke-linecap:round;stroke-linejoin:round;stroke-miterlimit:10;stroke-dasharray:none;stroke-opacity:1"
         id="path1079"
         inkscape:connector-curvature="0" /></g><g
       id="g1081" /><g
       id="g1083" /><g
       id="g1085" /><g
       id="g1087" /><g
       id="g1089" /><g
       id="g1091" /><g
       id="g1093" /><g
       id="g1095" /><g
       id="g1097" /><g
       id="g1099" /><g
       id="g1101" /><g
       id="g1103"><g
         id="g1105"
         clip-path="url(#clipPath1109)"><path
           d="M 0,0 H 360 V 288 H 0 Z"
           style="fill:#ffffff;fill-opacity:1;fill-rule:nonzero;stroke:none"
           id="path1111"
           inkscape:connector-curvature="0" /></g></g><g
       id="g1113" /><g
       id="g1115"><g
         id="g1117"
         clip-path="url(#clipPath1121)"><path
           d="M 49.17,50.33 H 345.83 V 240.62 H 49.17 Z"
           style="fill:#ffffff;fill-opacity:1;fill-rule:nonzero;stroke:none"
           id="path1123"
           inkscape:connector-curvature="0" /><path
           d="M 49.17,208.6 H 345.83"
           style="fill:none;stroke:#7f7f7f;stroke-width:1.07000005;stroke-linecap:butt;stroke-linejoin:round;stroke-miterlimit:10;stroke-dasharray:4.27, 4.27;stroke-dashoffset:0;stroke-opacity:1"
           id="path1125"
           inkscape:connector-curvature="0" /><path
           d="m 79.51,181.48 33.71,-1.64 33.71,3.65 33.71,16.69 33.71,8.42 33.71,-3.41 33.72,-36.43 33.71,-94.54"
           style="fill:none;stroke:#4dbbd5;stroke-width:2.13000011;stroke-linecap:butt;stroke-linejoin:round;stroke-miterlimit:10;stroke-dasharray:none;stroke-opacity:1"
           id="path1127"
           inkscape:connector-curvature="0" /><path
           d="m 79.51,205.09 33.71,-6.73 33.71,-3.28 33.71,11.23 33.71,2.29 33.71,1.45 33.72,-31.8 33.71,-91.68 V 61.88 l -33.71,97.39 -33.72,41.06 -33.71,8.27 -33.71,-14.54 -33.71,-22.17 -33.71,-10.56 -33.71,-3.46 z"
           style="fill:#4dbbd5;fill-opacity:0.30199998;fill-rule:nonzero;stroke:none"
           id="path1129"
           inkscape:connector-curvature="0" /><path
           d="m 75.95,181.48 c 0,1.95 1.6,3.55 3.56,3.55 1.95,0 3.55,-1.6 3.55,-3.55 0,-1.96 -1.6,-3.56 -3.55,-3.56 -1.96,0 -3.56,1.6 -3.56,3.56"
           style="fill:#4dbbd5;fill-opacity:1;fill-rule:nonzero;stroke:#4dbbd5;stroke-width:0.70999998;stroke-linecap:round;stroke-linejoin:round;stroke-miterlimit:10;stroke-dasharray:none;stroke-opacity:1"
           id="path1131"
           inkscape:connector-curvature="0" /><path
           d="m 109.66,179.84 c 0,1.96 1.6,3.56 3.56,3.56 1.96,0 3.56,-1.6 3.56,-3.56 0,-1.95 -1.6,-3.55 -3.56,-3.55 -1.96,0 -3.56,1.6 -3.56,3.55"
           style="fill:#4dbbd5;fill-opacity:1;fill-rule:nonzero;stroke:#4dbbd5;stroke-width:0.70999998;stroke-linecap:round;stroke-linejoin:round;stroke-miterlimit:10;stroke-dasharray:none;stroke-opacity:1"
           id="path1133"
           inkscape:connector-curvature="0" /><path
           d="m 143.38,183.49 c 0,1.95 1.6,3.55 3.55,3.55 1.96,0 3.56,-1.6 3.56,-3.55 0,-1.96 -1.6,-3.56 -3.56,-3.56 -1.95,0 -3.55,1.6 -3.55,3.56"
           style="fill:#4dbbd5;fill-opacity:1;fill-rule:nonzero;stroke:#4dbbd5;stroke-width:0.70999998;stroke-linecap:round;stroke-linejoin:round;stroke-miterlimit:10;stroke-dasharray:none;stroke-opacity:1"
           id="path1135"
           inkscape:connector-curvature="0" /><path
           d="m 177.09,200.18 c 0,1.96 1.6,3.56 3.55,3.56 1.96,0 3.56,-1.6 3.56,-3.56 0,-1.95 -1.6,-3.55 -3.56,-3.55 -1.95,0 -3.55,1.6 -3.55,3.55"
           style="fill:#4dbbd5;fill-opacity:1;fill-rule:nonzero;stroke:#4dbbd5;stroke-width:0.70999998;stroke-linecap:round;stroke-linejoin:round;stroke-miterlimit:10;stroke-dasharray:none;stroke-opacity:1"
           id="path1137"
           inkscape:connector-curvature="0" /><path
           d="m 210.8,208.6 c 0,1.95 1.6,3.55 3.55,3.55 1.96,0 3.56,-1.6 3.56,-3.55 0,-1.96 -1.6,-3.56 -3.56,-3.56 -1.95,0 -3.55,1.6 -3.55,3.56"
           style="fill:#4dbbd5;fill-opacity:1;fill-rule:nonzero;stroke:#4dbbd5;stroke-width:0.70999998;stroke-linecap:round;stroke-linejoin:round;stroke-miterlimit:10;stroke-dasharray:none;stroke-opacity:1"
           id="path1139"
           inkscape:connector-curvature="0" /><path
           d="m 244.51,205.19 c 0,1.95 1.6,3.55 3.55,3.55 1.96,0 3.56,-1.6 3.56,-3.55 0,-1.96 -1.6,-3.56 -3.56,-3.56 -1.95,0 -3.55,1.6 -3.55,3.56"
           style="fill:#4dbbd5;fill-opacity:1;fill-rule:nonzero;stroke:#4dbbd5;stroke-width:0.70999998;stroke-linecap:round;stroke-linejoin:round;stroke-miterlimit:10;stroke-dasharray:none;stroke-opacity:1"
           id="path1141"
           inkscape:connector-curvature="0" /><path
           d="m 278.22,168.76 c 0,1.96 1.6,3.56 3.56,3.56 1.95,0 3.55,-1.6 3.55,-3.56 0,-1.95 -1.6,-3.55 -3.55,-3.55 -1.96,0 -3.56,1.6 -3.56,3.55"
           style="fill:#4dbbd5;fill-opacity:1;fill-rule:nonzero;stroke:#4dbbd5;stroke-width:0.70999998;stroke-linecap:round;stroke-linejoin:round;stroke-miterlimit:10;stroke-dasharray:none;stroke-opacity:1"
           id="path1143"
           inkscape:connector-curvature="0" /><path
           d="m 311.93,74.22 c 0,1.96 1.6,3.56 3.56,3.56 1.95,0 3.55,-1.6 3.55,-3.56 0,-1.95 -1.6,-3.55 -3.55,-3.55 -1.96,0 -3.56,1.6 -3.56,3.55"
           style="fill:#4dbbd5;fill-opacity:1;fill-rule:nonzero;stroke:#4dbbd5;stroke-width:0.70999998;stroke-linecap:round;stroke-linejoin:round;stroke-miterlimit:10;stroke-dasharray:none;stroke-opacity:1"
           id="path1145"
           inkscape:connector-curvature="0" /><text
           transform="matrix(1,0,0,-1,95.19,225.55)"
           style="font-variant:normal;font-weight:normal;font-size:14px;font-family:Helvetica;-inkscape-font-specification:Helvetica;writing-mode:lr-tb;fill:#7f7f7f;fill-opacity:1;fill-rule:nonzero;stroke:none"
           id="text1149"><tspan
             x="0 10.108 17.892 25.676001 32.675999 35.784 39.675999 46.675999 50.568001 58.352001 62.243999 66.136002 77.797997 85.582001 92.582001 96.473999 100.366 104.258 112.042 123.704 131.48801 139.272 143.79401 151.578 155.47 163.254 167.916 175.7 179.592 184.254 189.854 199.96201"
             y="0"
             sodipodi:role="line"
             id="tspan1147">Density of max. temperature (°C)</tspan></text>
<text
           transform="matrix(1,0,0,-1,67.44,68.33)"
           style="font-variant:normal;font-weight:normal;font-size:17px;font-family:Helvetica;-inkscape-font-specification:Helvetica;writing-mode:lr-tb;fill:#404040;fill-opacity:1;fill-rule:nonzero;stroke:none"
           id="text1153"><tspan
             x="0 12.274 21.726 28.066999 32.792999 42.244999 46.971001 59.244999 68.696999 72.471001 81.922997"
             y="0"
             sodipodi:role="line"
             id="tspan1151">North China</tspan></text>
</g></g><g
       id="g1155" /><g
       id="g1157" /><g
       id="g1159" /><g
       id="g1161" /><g
       id="g1163" /><g
       id="g1165" /><g
       id="g1167" /><g
       id="g1169" /><g
       id="g1171" /><g
       id="g1173" /><g
       id="g1175" /><g
       id="g1177" /><g
       id="g1179"><path
         d="M 49.17,50.33 V 240.62"
         style="fill:none;stroke:#000000;stroke-width:1.36000001;stroke-linecap:butt;stroke-linejoin:round;stroke-miterlimit:10;stroke-dasharray:none;stroke-opacity:1"
         id="path1181"
         inkscape:connector-curvature="0" /></g><g
       id="g1183" /><g
       id="g1185" /><g
       id="g1187"><text
         transform="matrix(1,0,0,-1,30.35,64.38)"
         style="font-variant:normal;font-weight:normal;font-size:11px;font-family:Helvetica;-inkscape-font-specification:Helvetica;writing-mode:lr-tb;fill:#000000;fill-opacity:1;fill-rule:nonzero;stroke:none"
         id="text1191"><tspan
           x="0 6.4239998"
           y="0"
           sodipodi:role="line"
           id="tspan1189">−3</tspan></text>
<text
         transform="matrix(1,0,0,-1,30.35,111.14)"
         style="font-variant:normal;font-weight:normal;font-size:11px;font-family:Helvetica;-inkscape-font-specification:Helvetica;writing-mode:lr-tb;fill:#000000;fill-opacity:1;fill-rule:nonzero;stroke:none"
         id="text1195"><tspan
           x="0 6.4239998"
           y="0"
           sodipodi:role="line"
           id="tspan1193">−2</tspan></text>
<text
         transform="matrix(1,0,0,-1,30.35,157.89)"
         style="font-variant:normal;font-weight:normal;font-size:11px;font-family:Helvetica;-inkscape-font-specification:Helvetica;writing-mode:lr-tb;fill:#000000;fill-opacity:1;fill-rule:nonzero;stroke:none"
         id="text1199"><tspan
           x="0 6.4239998"
           y="0"
           sodipodi:role="line"
           id="tspan1197">−1</tspan></text>
<text
         transform="matrix(1,0,0,-1,36.78,204.65)"
         style="font-variant:normal;font-weight:normal;font-size:11px;font-family:Helvetica;-inkscape-font-specification:Helvetica;writing-mode:lr-tb;fill:#000000;fill-opacity:1;fill-rule:nonzero;stroke:none"
         id="text1203"><tspan
           x="0"
           y="0"
           id="tspan1201">0</tspan></text>
</g><g
       id="g1205" /><g
       id="g1207"><path
         d="m 45.68,68.33 h 3.49"
         style="fill:none;stroke:#000000;stroke-width:1.36000001;stroke-linecap:butt;stroke-linejoin:round;stroke-miterlimit:10;stroke-dasharray:none;stroke-opacity:1"
         id="path1209"
         inkscape:connector-curvature="0" /><path
         d="m 45.68,115.09 h 3.49"
         style="fill:none;stroke:#000000;stroke-width:1.36000001;stroke-linecap:butt;stroke-linejoin:round;stroke-miterlimit:10;stroke-dasharray:none;stroke-opacity:1"
         id="path1211"
         inkscape:connector-curvature="0" /><path
         d="m 45.68,161.84 h 3.49"
         style="fill:none;stroke:#000000;stroke-width:1.36000001;stroke-linecap:butt;stroke-linejoin:round;stroke-miterlimit:10;stroke-dasharray:none;stroke-opacity:1"
         id="path1213"
         inkscape:connector-curvature="0" /><path
         d="m 45.68,208.6 h 3.49"
         style="fill:none;stroke:#000000;stroke-width:1.36000001;stroke-linecap:butt;stroke-linejoin:round;stroke-miterlimit:10;stroke-dasharray:none;stroke-opacity:1"
         id="path1215"
         inkscape:connector-curvature="0" /></g><g
       id="g1217" /><g
       id="g1219" /><g
       id="g1221" /><g
       id="g1223" /><g
       id="g1225" /><g
       id="g1227" /><g
       id="g1229"><path
         d="M 49.17,50.33 H 345.83"
         style="fill:none;stroke:#000000;stroke-width:1.36000001;stroke-linecap:butt;stroke-linejoin:round;stroke-miterlimit:10;stroke-dasharray:none;stroke-opacity:1"
         id="path1231"
         inkscape:connector-curvature="0" /></g><g
       id="g1233" /><g
       id="g1235" /><g
       id="g1237"><path
         d="m 62.65,46.84 v 3.49"
         style="fill:none;stroke:#000000;stroke-width:1.36000001;stroke-linecap:butt;stroke-linejoin:round;stroke-miterlimit:10;stroke-dasharray:none;stroke-opacity:1"
         id="path1239"
         inkscape:connector-curvature="0" /><path
         d="m 130.08,46.84 v 3.49"
         style="fill:none;stroke:#000000;stroke-width:1.36000001;stroke-linecap:butt;stroke-linejoin:round;stroke-miterlimit:10;stroke-dasharray:none;stroke-opacity:1"
         id="path1241"
         inkscape:connector-curvature="0" /><path
         d="m 197.5,46.84 v 3.49"
         style="fill:none;stroke:#000000;stroke-width:1.36000001;stroke-linecap:butt;stroke-linejoin:round;stroke-miterlimit:10;stroke-dasharray:none;stroke-opacity:1"
         id="path1243"
         inkscape:connector-curvature="0" /><path
         d="m 264.92,46.84 v 3.49"
         style="fill:none;stroke:#000000;stroke-width:1.36000001;stroke-linecap:butt;stroke-linejoin:round;stroke-miterlimit:10;stroke-dasharray:none;stroke-opacity:1"
         id="path1245"
         inkscape:connector-curvature="0" /><path
         d="m 332.34,46.84 v 3.49"
         style="fill:none;stroke:#000000;stroke-width:1.36000001;stroke-linecap:butt;stroke-linejoin:round;stroke-miterlimit:10;stroke-dasharray:none;stroke-opacity:1"
         id="path1247"
         inkscape:connector-curvature="0" /></g><g
       id="g1249" /><g
       id="g1251"><text
         transform="matrix(1,0,0,-1,59.6,36.16)"
         style="font-variant:normal;font-weight:normal;font-size:11px;font-family:Helvetica;-inkscape-font-specification:Helvetica;writing-mode:lr-tb;fill:#000000;fill-opacity:1;fill-rule:nonzero;stroke:none"
         id="text1255"><tspan
           x="0"
           y="0"
           id="tspan1253">0</tspan></text>
<text
         transform="matrix(1,0,0,-1,123.96,36.16)"
         style="font-variant:normal;font-weight:normal;font-size:11px;font-family:Helvetica;-inkscape-font-specification:Helvetica;writing-mode:lr-tb;fill:#000000;fill-opacity:1;fill-rule:nonzero;stroke:none"
         id="text1259"><tspan
           x="0 6.1160002"
           y="0"
           sodipodi:role="line"
           id="tspan1257">10</tspan></text>
<text
         transform="matrix(1,0,0,-1,191.38,36.16)"
         style="font-variant:normal;font-weight:normal;font-size:11px;font-family:Helvetica;-inkscape-font-specification:Helvetica;writing-mode:lr-tb;fill:#000000;fill-opacity:1;fill-rule:nonzero;stroke:none"
         id="text1263"><tspan
           x="0 6.1160002"
           y="0"
           sodipodi:role="line"
           id="tspan1261">20</tspan></text>
<text
         transform="matrix(1,0,0,-1,258.8,36.16)"
         style="font-variant:normal;font-weight:normal;font-size:11px;font-family:Helvetica;-inkscape-font-specification:Helvetica;writing-mode:lr-tb;fill:#000000;fill-opacity:1;fill-rule:nonzero;stroke:none"
         id="text1267"><tspan
           x="0 6.1160002"
           y="0"
           sodipodi:role="line"
           id="tspan1265">30</tspan></text>
<text
         transform="matrix(1,0,0,-1,326.23,36.16)"
         style="font-variant:normal;font-weight:normal;font-size:11px;font-family:Helvetica;-inkscape-font-specification:Helvetica;writing-mode:lr-tb;fill:#000000;fill-opacity:1;fill-rule:nonzero;stroke:none"
         id="text1271"><tspan
           x="0 6.1160002"
           y="0"
           sodipodi:role="line"
           id="tspan1269">40</tspan></text>
</g><g
       id="g1273" /><g
       id="g1275" /><g
       id="g1277" /><g
       id="g1279" /><g
       id="g1281" /><g
       id="g1283"><text
         transform="matrix(1,0,0,-1,128.25,16.54)"
         style="font-variant:normal;font-weight:normal;font-size:14px;font-family:Helvetica;-inkscape-font-specification:Helvetica;writing-mode:lr-tb;fill:#000000;fill-opacity:1;fill-rule:nonzero;stroke:none"
         id="text1287"><tspan
           x="0 11.662 19.445999 26.445999 30.337999 34.23 38.122002 45.905998 57.568001 65.351997 73.136002 77.657997 85.442001 89.334 97.117996 101.78 109.564 113.456"
           y="0"
           sodipodi:role="line"
           id="tspan1285">Max. temperature (</tspan></text>
<text
         transform="matrix(1,0,0,-1,246.37,16.54)"
         style="font-variant:normal;font-weight:normal;font-size:14px;font-family:Symbol;-inkscape-font-specification:Symbol;writing-mode:lr-tb;fill:#000000;fill-opacity:1;fill-rule:nonzero;stroke:none"
         id="text1291"><tspan
           x="0"
           y="0"
           id="tspan1289">°</tspan></text>
<text
         transform="matrix(1,0,0,-1,251.97,16.54)"
         style="font-variant:normal;font-weight:normal;font-size:14px;font-family:Helvetica;-inkscape-font-specification:Helvetica;writing-mode:lr-tb;fill:#000000;fill-opacity:1;fill-rule:nonzero;stroke:none"
         id="text1295"><tspan
           x="0"
           y="0"
           id="tspan1293">C</tspan></text>
<text
         transform="matrix(1,0,0,-1,262.08,16.54)"
         style="font-variant:normal;font-weight:normal;font-size:14px;font-family:Helvetica;-inkscape-font-specification:Helvetica;writing-mode:lr-tb;fill:#000000;fill-opacity:1;fill-rule:nonzero;stroke:none"
         id="text1299"><tspan
           x="0"
           y="0"
           id="tspan1297">)</tspan></text>
</g><g
       id="g1301" /><g
       id="g1303"><text
         transform="matrix(0,1,1,0,21.59,76.23)"
         style="font-variant:normal;font-weight:normal;font-size:14px;font-family:Helvetica;-inkscape-font-specification:Helvetica;writing-mode:lr-tb;fill:#000000;fill-opacity:1;fill-rule:nonzero;stroke:none"
         id="text1307"><tspan
           x="0 9.3380003 17.122 24.906 28.798 31.906 43.568001 51.352001 59.136002 63.028 66.919998 73.919998 81.704002 89.487999 97.272003 105.056 112.84 116.732 121.394 133.84"
           y="0"
           sodipodi:role="line"
           id="tspan1305">Sentiment change (%)</tspan></text>
</g><g
       id="g1309" /><g
       id="g1311" /><g
       id="g1313" /><g
       id="g1315" /><g
       id="g1317" /><g
       id="g1319" /><g
       id="g1321" /><g
       id="g1323" /><g
       id="g1325" /><g
       id="g1327" /><g
       id="g1329"><path
         d="m 49.17,243.24 0.58,0.15 0.58,0.17 0.58,0.16 0.58,0.16 0.58,0.16 0.58,0.17 0.58,0.16 0.58,0.16 0.58,0.16 0.58,0.15 0.58,0.16 0.59,0.15 0.58,0.15 0.58,0.15 0.58,0.14 0.58,0.15 0.58,0.13 0.58,0.14 0.58,0.13 0.58,0.13 0.58,0.13 0.58,0.12 0.58,0.13 0.58,0.12 0.58,0.11 0.58,0.12 0.58,0.11 0.58,0.12 0.58,0.11 0.58,0.11 0.59,0.11 0.58,0.11 0.58,0.1 0.58,0.11 0.58,0.11 0.58,0.1 0.58,0.11 0.58,0.1 0.58,0.1 0.58,0.11 0.58,0.1 0.58,0.1 0.58,0.11 0.58,0.1 0.58,0.1 0.58,0.1 0.58,0.1 0.58,0.1 0.59,0.1 0.58,0.1 0.58,0.1 0.58,0.1 0.58,0.1 0.58,0.1 0.58,0.1 0.58,0.1 0.58,0.1 0.58,0.1 0.58,0.1 0.58,0.09 0.58,0.1 0.58,0.1 0.58,0.09 0.58,0.1 0.58,0.09 0.58,0.09 0.59,0.1 0.58,0.09 0.58,0.09 0.58,0.09 0.58,0.08 0.58,0.09 0.58,0.08 0.58,0.09 0.58,0.08 0.58,0.07 0.58,0.08 0.58,0.07 0.58,0.07 0.58,0.07 0.58,0.06 0.58,0.07 0.58,0.05 0.58,0.06 0.58,0.05 0.59,0.05 0.58,0.05 0.58,0.04 0.58,0.04 0.58,0.03 0.58,0.04 0.58,0.02 0.58,0.03 0.58,0.02 0.58,0.02 0.58,0.02 0.58,0.01 0.58,0.01 0.58,0.01 h 0.58 l 0.58,0.01 h 0.58 l 0.58,-0.01 h 0.59 0.58 l 0.58,-0.01 0.58,-0.01 0.58,-0.01 0.58,-0.01 0.58,-0.01 0.58,-0.01 0.58,-0.01 0.58,-0.02 0.58,-0.01 0.58,-0.02 0.58,-0.01 0.58,-0.02 0.58,-0.02 0.58,-0.02 0.58,-0.02 0.58,-0.02 0.59,-0.03 0.58,-0.02 0.58,-0.03 0.58,-0.03 0.58,-0.03 0.58,-0.04 0.58,-0.04 0.58,-0.03 0.58,-0.05 0.58,-0.04 0.58,-0.05 0.58,-0.04 0.58,-0.06 0.58,-0.05 0.58,-0.05 0.58,-0.06 0.58,-0.05 0.58,-0.06 0.58,-0.06 0.59,-0.06 0.58,-0.05 0.58,-0.06 0.58,-0.06 0.58,-0.06 0.58,-0.05 0.58,-0.06 0.58,-0.05 0.58,-0.05 0.58,-0.05 0.58,-0.05 0.58,-0.05 0.58,-0.04 0.58,-0.04 0.58,-0.04 0.58,-0.04 0.58,-0.03 0.58,-0.03 0.59,-0.03 0.58,-0.03 0.58,-0.02 0.58,-0.03 0.58,-0.02 0.58,-0.01 0.58,-0.02 0.58,-0.01 0.58,-0.01 0.58,-0.01 0.58,-0.01 0.58,-0.01 h 0.58 0.58 0.58 0.58 0.58 0.58 0.58 l 0.59,0.01 0.58,0.01 h 0.58 l 0.58,0.01 0.58,0.01 0.58,0.01 0.58,0.01 0.58,0.02 0.58,0.01 0.58,0.02 0.58,0.02 0.58,0.02 0.58,0.02 0.58,0.02 0.58,0.03 0.58,0.03 0.58,0.03 0.58,0.03 0.59,0.04 0.58,0.04 0.58,0.04 0.58,0.05 0.58,0.05 0.58,0.05 0.58,0.06 0.58,0.05 0.58,0.07 0.58,0.06 0.58,0.07 0.58,0.07 0.58,0.08 0.58,0.07 0.58,0.08 0.58,0.08 0.58,0.08 0.58,0.08 0.59,0.08 0.58,0.08 0.58,0.08 0.58,0.09 0.58,0.08 0.58,0.07 0.58,0.08 0.58,0.07 0.58,0.08 0.58,0.07 0.58,0.06 0.58,0.07 0.58,0.06 0.58,0.06 0.58,0.06 0.58,0.05 0.58,0.05 0.58,0.05 0.58,0.04 0.59,0.04 0.58,0.04 0.58,0.04 0.58,0.04 0.58,0.03 0.58,0.04 0.58,0.03 0.58,0.03 0.58,0.03 0.58,0.03 0.58,0.03 0.58,0.03 0.58,0.04 0.58,0.03 0.58,0.03 0.58,0.04 0.58,0.04 0.58,0.04 0.59,0.04 0.58,0.04 0.58,0.05 0.58,0.05 0.58,0.05 0.58,0.06 0.58,0.06 0.58,0.07 0.58,0.06 0.58,0.07 0.58,0.08 0.58,0.08 0.58,0.08 0.58,0.08 0.58,0.09 0.58,0.09 0.58,0.09 0.58,0.09 0.59,0.1 0.58,0.1 0.58,0.1 0.58,0.1 0.58,0.1 0.58,0.11 0.58,0.1 0.58,0.1 0.58,0.11 0.58,0.1 0.58,0.1 0.58,0.1 0.58,0.1 0.58,0.1 0.58,0.1 0.58,0.1 0.58,0.09 0.58,0.09 0.58,0.09 0.59,0.09 0.58,0.09 0.58,0.08 0.58,0.09 0.58,0.08 0.58,0.08 0.58,0.07 0.58,0.08 0.58,0.07 0.58,0.06 0.58,0.07 0.58,0.07 0.58,0.06 0.58,0.05 0.58,0.06 0.58,0.05 0.58,0.06 0.58,0.04 0.59,0.05 0.58,0.04 0.58,0.05 0.58,0.04 0.58,0.03 0.58,0.04 0.58,0.03 0.58,0.03 0.58,0.03 0.58,0.03 0.58,0.03 0.58,0.03 0.58,0.02 0.58,0.03 0.58,0.02 0.58,0.02 0.58,0.03 0.58,0.02 0.58,0.02 0.59,0.02 0.58,0.03 0.58,0.02 0.58,0.03 0.58,0.02 0.58,0.02 0.58,0.03 0.58,0.02 0.58,0.03 0.58,0.03 0.58,0.02 0.58,0.03 0.58,0.02 0.58,0.03 0.58,0.03 0.58,0.02 0.58,0.03 0.58,0.02 0.59,0.02 0.58,0.02 0.58,0.02 0.58,0.02 0.58,0.01 0.58,0.02 0.58,0.01 h 0.58 0.58 0.58 0.58 l 0.58,-0.01 0.58,-0.02 0.58,-0.02 0.58,-0.02 0.58,-0.03 0.58,-0.04 0.58,-0.05 0.59,-0.05 0.58,-0.05 0.58,-0.07 0.58,-0.07 0.58,-0.07 0.58,-0.09 0.58,-0.09 0.58,-0.1 0.58,-0.11 0.58,-0.11 0.58,-0.12 0.58,-0.13 0.58,-0.13 0.58,-0.14 0.58,-0.15 0.58,-0.15 0.58,-0.16 0.58,-0.16 0.58,-0.17 0.59,-0.18 0.58,-0.18 0.58,-0.18 0.58,-0.19 0.58,-0.19 0.58,-0.2 0.58,-0.2 0.58,-0.2 0.58,-0.21 0.58,-0.21 0.58,-0.21 0.58,-0.22 0.58,-0.21 0.58,-0.22 0.58,-0.22 0.58,-0.22 0.58,-0.22 0.58,-0.23 0.59,-0.22 0.58,-0.23 0.58,-0.22 0.58,-0.23 0.58,-0.22 0.58,-0.23 0.58,-0.22 0.58,-0.22 0.58,-0.23 0.58,-0.22 0.58,-0.22 0.58,-0.22 0.58,-0.22 0.58,-0.22 0.58,-0.21 0.58,-0.22 0.58,-0.21 0.58,-0.21 0.59,-0.21 0.58,-0.2 0.58,-0.21 0.58,-0.2 0.58,-0.2 0.58,-0.2 0.58,-0.2 0.58,-0.19 0.58,-0.19 0.58,-0.19 0.58,-0.19 0.58,-0.18 0.58,-0.19 0.58,-0.18 0.58,-0.18 0.58,-0.17 0.58,-0.17 0.58,-0.18 0.58,-0.17 0.59,-0.16 0.58,-0.17 0.58,-0.16 0.58,-0.16 0.58,-0.16 0.58,-0.15 0.58,-0.16 0.58,-0.15 0.58,-0.15 0.58,-0.14 0.58,-0.15 0.58,-0.14 0.58,-0.14 0.58,-0.14 0.58,-0.13 0.58,-0.13 0.58,-0.13 0.58,-0.12 0.59,-0.12 0.58,-0.12 0.58,-0.12 0.58,-0.11 0.58,-0.11 0.58,-0.11 0.58,-0.1 0.58,-0.1 0.58,-0.1 0.58,-0.09 0.58,-0.09 0.58,-0.09 0.58,-0.08 0.58,-0.08 0.58,-0.08 0.58,-0.08 0.58,-0.07 0.58,-0.06 0.58,-0.07 0.59,-0.06 0.58,-0.06 0.58,-0.06 0.58,-0.05 0.58,-0.05 0.58,-0.05 0.58,-0.04 0.58,-0.05 0.58,-0.04 0.58,-0.03 0.58,-0.04 0.58,-0.03 0.58,-0.04 0.58,-0.02 0.58,-0.03 0.58,-0.03 0.58,-0.02 0.58,-0.02 0.59,-0.03 0.58,-0.02 0.58,-0.01 0.58,-0.02 0.58,-0.02 0.58,-0.01 0.58,-0.02 0.58,-0.01 0.58,-0.01 0.58,-0.01 0.58,-0.01 0.58,-0.01 0.58,-0.01 0.58,-0.01 0.58,-0.01 0.58,-0.01 h 0.58 l 0.58,-0.01 0.59,-0.01 h 0.58 l 0.58,-0.01 0.58,-0.01 v -0.06 h -0.58 -0.58 -0.58 -0.59 -0.58 -0.58 -0.58 -0.58 -0.58 -0.58 -0.58 -0.58 -0.58 -0.58 -0.58 -0.58 -0.58 -0.58 -0.58 -0.58 -0.58 -0.59 -0.58 -0.58 -0.58 -0.58 -0.58 -0.58 -0.58 -0.58 -0.58 -0.58 -0.58 -0.58 -0.58 -0.58 -0.58 -0.58 -0.58 -0.59 -0.58 -0.58 -0.58 -0.58 -0.58 -0.58 -0.58 -0.58 -0.58 -0.58 -0.58 -0.58 -0.58 -0.58 -0.58 -0.58 -0.58 -0.58 -0.59 -0.58 -0.58 -0.58 -0.58 -0.58 -0.58 -0.58 -0.58 -0.58 -0.58 -0.58 -0.58 -0.58 -0.58 -0.58 -0.58 -0.58 -0.59 -0.58 -0.58 -0.58 -0.58 -0.58 -0.58 -0.58 -0.58 -0.58 -0.58 -0.58 -0.58 -0.58 -0.58 -0.58 -0.58 -0.58 -0.58 -0.59 -0.58 -0.58 -0.58 -0.58 -0.58 -0.58 -0.58 -0.58 -0.58 -0.58 -0.58 -0.58 -0.58 -0.58 -0.58 -0.58 -0.58 -0.59 -0.58 -0.58 -0.58 -0.58 -0.58 -0.58 -0.58 -0.58 -0.58 -0.58 -0.58 -0.58 -0.58 -0.58 -0.58 -0.58 -0.58 -0.59 -0.58 -0.58 -0.58 -0.58 -0.58 -0.58 -0.58 -0.58 -0.58 -0.58 -0.58 -0.58 -0.58 -0.58 -0.58 -0.58 -0.58 -0.58 -0.59 -0.58 -0.58 -0.58 -0.58 -0.58 -0.58 -0.58 -0.58 -0.58 -0.58 -0.58 -0.58 -0.58 -0.58 -0.58 -0.58 -0.58 -0.59 -0.58 -0.58 -0.58 -0.58 -0.58 -0.58 -0.58 -0.58 -0.58 -0.58 -0.58 -0.58 -0.58 -0.58 -0.58 -0.58 -0.58 -0.59 -0.58 -0.58 -0.58 -0.58 -0.58 -0.58 -0.58 -0.58 -0.58 -0.58 -0.58 -0.58 -0.58 -0.58 -0.58 -0.58 -0.58 -0.58 -0.59 -0.58 -0.58 -0.58 -0.58 -0.58 -0.58 -0.58 -0.58 -0.58 -0.58 -0.58 -0.58 -0.58 -0.58 -0.58 -0.58 -0.58 -0.59 -0.58 -0.58 -0.58 -0.58 -0.58 -0.58 -0.58 -0.58 -0.58 -0.58 -0.58 -0.58 -0.58 -0.58 -0.58 -0.58 -0.58 -0.58 -0.59 -0.58 -0.58 -0.58 -0.58 -0.58 -0.58 -0.58 -0.58 -0.58 -0.58 -0.58 -0.58 -0.58 -0.58 -0.58 -0.58 -0.58 -0.59 -0.58 -0.58 -0.58 -0.58 -0.58 -0.58 -0.58 -0.58 -0.58 -0.58 -0.58 -0.58 -0.58 -0.58 -0.58 -0.58 -0.58 -0.59 -0.58 -0.58 -0.58 -0.58 -0.58 -0.58 -0.58 -0.58 -0.58 -0.58 -0.58 -0.58 -0.58 -0.58 -0.58 -0.58 -0.58 -0.58 -0.59 -0.58 -0.58 -0.58 -0.58 -0.58 -0.58 -0.58 -0.58 -0.58 -0.58 -0.58 -0.58 -0.58 -0.58 -0.58 -0.58 -0.58 -0.59 -0.58 -0.58 -0.58 -0.58 -0.58 -0.58 -0.58 -0.58 -0.58 -0.58 -0.58 -0.58 -0.58 -0.58 -0.58 -0.58 -0.58 -0.59 -0.58 -0.58 -0.58 -0.58 -0.58 -0.58 -0.58 -0.58 -0.58 -0.58 -0.58 -0.58 -0.58 -0.58 -0.58 -0.58 -0.58 -0.58 -0.59 -0.58 -0.58 -0.58 -0.58 -0.58 -0.58 -0.58 -0.58 -0.58 -0.58 -0.58 -0.58 -0.58 -0.58 -0.58 -0.58 -0.58 -0.59 -0.58 -0.58 -0.58 -0.58 -0.58 -0.58 -0.58 -0.58 -0.58 -0.58 -0.58 -0.58 -0.58 -0.58 -0.58 -0.58 -0.58 -0.58 -0.59 -0.58 -0.58 -0.58 -0.58 -0.58 -0.58 -0.58 -0.58 -0.58 -0.58 -0.58 -0.58 -0.58 -0.58 -0.58 -0.58 -0.58 -0.59 -0.58 -0.58 -0.58 -0.58 -0.58 -0.58 -0.58 -0.58 -0.58 -0.58 -0.58 -0.58 -0.58 -0.58 -0.58 H 99.68 99.1 98.51 97.93 97.35 96.77 96.19 95.61 95.03 94.45 93.87 93.29 92.71 92.13 91.55 90.97 90.39 89.81 89.23 88.65 88.07 87.48 86.9 86.32 85.74 85.16 84.58 84 83.42 82.84 82.26 81.68 81.1 80.52 79.94 79.36 78.78 78.2 77.62 77.03 76.45 75.87 75.29 74.71 74.13 73.55 72.97 72.39 71.81 71.23 70.65 70.07 69.49 68.91 68.33 67.75 67.17 66.58 66 65.42 64.84 64.26 63.68 63.1 62.52 61.94 61.36 60.78 60.2 59.62 59.04 58.46 57.88 57.3 56.72 56.14 55.55 54.97 54.39 53.81 53.23 52.65 52.07 51.49 50.91 50.33 49.75 49.17 Z"
         style="fill:#bfbfbf;fill-opacity:0.50199998;fill-rule:nonzero;stroke:#7f7f7f;stroke-width:1.07000005;stroke-linecap:round;stroke-linejoin:round;stroke-miterlimit:10;stroke-dasharray:none;stroke-opacity:1"
         id="path1331"
         inkscape:connector-curvature="0" /></g><g
       id="g1333" /><g
       id="g1335" /><g
       id="g1337" /><g
       id="g1339" /><g
       id="g1341" /><g
       id="g1343" /><g
       id="g1345" /><g
       id="g1347" /><g
       id="g1349" /><g
       id="g1351" /><g
       id="g1353" /><g
       id="g1355"><g
         id="g1357"
         clip-path="url(#clipPath1361)"><path
           d="M 360,0 H 720 V 288 H 360 Z"
           style="fill:#ffffff;fill-opacity:1;fill-rule:nonzero;stroke:none"
           id="path1363"
           inkscape:connector-curvature="0" /></g></g><g
       id="g1365" /><g
       id="g1367"><g
         id="g1369"
         clip-path="url(#clipPath1373)"><path
           d="M 409.17,50.33 H 705.83 V 240.62 H 409.17 Z"
           style="fill:#ffffff;fill-opacity:1;fill-rule:nonzero;stroke:none"
           id="path1375"
           inkscape:connector-curvature="0" /><path
           d="M 409.17,208.6 H 705.83"
           style="fill:none;stroke:#7f7f7f;stroke-width:1.07000005;stroke-linecap:butt;stroke-linejoin:round;stroke-miterlimit:10;stroke-dasharray:4.27, 4.27;stroke-dashoffset:0;stroke-opacity:1"
           id="path1377"
           inkscape:connector-curvature="0" /><path
           d="m 473.22,162.92 33.71,10.38 33.71,22.81 33.71,12.49 33.71,9.39 33.72,-34.5 33.71,-56.11"
           style="fill:none;stroke:#4dbbd5;stroke-width:2.13000011;stroke-linecap:butt;stroke-linejoin:round;stroke-miterlimit:10;stroke-dasharray:none;stroke-opacity:1"
           id="path1379"
           inkscape:connector-curvature="0" /><path
           d="m 473.22,179.8 33.71,3.92 33.71,20.48 33.71,4.4 33.71,14.44 33.72,-32.44 33.71,-51.01 v -24.41 l -33.71,61.2 -33.72,36.57 -33.71,-4.35 -33.71,-20.58 -33.71,-25.15 -33.71,-16.83 z"
           style="fill:#4dbbd5;fill-opacity:0.30199998;fill-rule:nonzero;stroke:none"
           id="path1381"
           inkscape:connector-curvature="0" /><path
           d="m 469.66,162.92 c 0,1.95 1.6,3.55 3.56,3.55 1.96,0 3.56,-1.6 3.56,-3.55 0,-1.96 -1.6,-3.56 -3.56,-3.56 -1.96,0 -3.56,1.6 -3.56,3.56"
           style="fill:#4dbbd5;fill-opacity:1;fill-rule:nonzero;stroke:#4dbbd5;stroke-width:0.70999998;stroke-linecap:round;stroke-linejoin:round;stroke-miterlimit:10;stroke-dasharray:none;stroke-opacity:1"
           id="path1383"
           inkscape:connector-curvature="0" /><path
           d="m 503.38,173.3 c 0,1.95 1.6,3.55 3.55,3.55 1.96,0 3.56,-1.6 3.56,-3.55 0,-1.96 -1.6,-3.56 -3.56,-3.56 -1.95,0 -3.55,1.6 -3.55,3.56"
           style="fill:#4dbbd5;fill-opacity:1;fill-rule:nonzero;stroke:#4dbbd5;stroke-width:0.70999998;stroke-linecap:round;stroke-linejoin:round;stroke-miterlimit:10;stroke-dasharray:none;stroke-opacity:1"
           id="path1385"
           inkscape:connector-curvature="0" /><path
           d="m 537.09,196.11 c 0,1.96 1.6,3.56 3.55,3.56 1.96,0 3.56,-1.6 3.56,-3.56 0,-1.95 -1.6,-3.55 -3.56,-3.55 -1.95,0 -3.55,1.6 -3.55,3.55"
           style="fill:#4dbbd5;fill-opacity:1;fill-rule:nonzero;stroke:#4dbbd5;stroke-width:0.70999998;stroke-linecap:round;stroke-linejoin:round;stroke-miterlimit:10;stroke-dasharray:none;stroke-opacity:1"
           id="path1387"
           inkscape:connector-curvature="0" /><path
           d="m 570.8,208.6 c 0,1.95 1.6,3.55 3.55,3.55 1.96,0 3.56,-1.6 3.56,-3.55 0,-1.96 -1.6,-3.56 -3.56,-3.56 -1.95,0 -3.55,1.6 -3.55,3.56"
           style="fill:#4dbbd5;fill-opacity:1;fill-rule:nonzero;stroke:#4dbbd5;stroke-width:0.70999998;stroke-linecap:round;stroke-linejoin:round;stroke-miterlimit:10;stroke-dasharray:none;stroke-opacity:1"
           id="path1389"
           inkscape:connector-curvature="0" /><path
           d="m 604.51,217.99 c 0,1.96 1.6,3.56 3.55,3.56 1.96,0 3.56,-1.6 3.56,-3.56 0,-1.95 -1.6,-3.55 -3.56,-3.55 -1.95,0 -3.55,1.6 -3.55,3.55"
           style="fill:#4dbbd5;fill-opacity:1;fill-rule:nonzero;stroke:#4dbbd5;stroke-width:0.70999998;stroke-linecap:round;stroke-linejoin:round;stroke-miterlimit:10;stroke-dasharray:none;stroke-opacity:1"
           id="path1391"
           inkscape:connector-curvature="0" /><path
           d="m 638.22,183.49 c 0,1.95 1.6,3.55 3.56,3.55 1.95,0 3.55,-1.6 3.55,-3.55 0,-1.96 -1.6,-3.56 -3.55,-3.56 -1.96,0 -3.56,1.6 -3.56,3.56"
           style="fill:#4dbbd5;fill-opacity:1;fill-rule:nonzero;stroke:#4dbbd5;stroke-width:0.70999998;stroke-linecap:round;stroke-linejoin:round;stroke-miterlimit:10;stroke-dasharray:none;stroke-opacity:1"
           id="path1393"
           inkscape:connector-curvature="0" /><path
           d="m 671.93,127.38 c 0,1.96 1.6,3.56 3.56,3.56 1.95,0 3.55,-1.6 3.55,-3.56 0,-1.95 -1.6,-3.55 -3.55,-3.55 -1.96,0 -3.56,1.6 -3.56,3.55"
           style="fill:#4dbbd5;fill-opacity:1;fill-rule:nonzero;stroke:#4dbbd5;stroke-width:0.70999998;stroke-linecap:round;stroke-linejoin:round;stroke-miterlimit:10;stroke-dasharray:none;stroke-opacity:1"
           id="path1395"
           inkscape:connector-curvature="0" /><text
           transform="matrix(1,0,0,-1,455.19,225.55)"
           style="font-variant:normal;font-weight:normal;font-size:14px;font-family:Helvetica;-inkscape-font-specification:Helvetica;writing-mode:lr-tb;fill:#7f7f7f;fill-opacity:1;fill-rule:nonzero;stroke:none"
           id="text1399"><tspan
             x="0 10.108 17.892 25.676001 32.675999 35.784 39.675999 46.675999 50.568001 58.352001 62.243999 66.136002 77.797997 85.582001 92.582001 96.473999 100.366 104.258 112.042 123.704 131.48801 139.272 143.79401 151.578 155.47 163.254 167.916 175.7 179.592 184.254 189.854 199.96201"
             y="0"
             sodipodi:role="line"
             id="tspan1397">Density of max. temperature (°C)</tspan></text>
<text
           transform="matrix(1,0,0,-1,427.88,68.33)"
           style="font-variant:normal;font-weight:normal;font-size:17px;font-family:Helvetica;-inkscape-font-specification:Helvetica;writing-mode:lr-tb;fill:#404040;fill-opacity:1;fill-rule:nonzero;stroke:none"
           id="text1403"><tspan
             x="0 11.339 20.791 30.243 34.969002 44.421001 49.146999 61.421001 70.873001 74.647003 84.098999"
             y="0"
             sodipodi:role="line"
             id="tspan1401">South China</tspan></text>
</g></g><g
       id="g1405" /><g
       id="g1407" /><g
       id="g1409" /><g
       id="g1411" /><g
       id="g1413" /><g
       id="g1415" /><g
       id="g1417" /><g
       id="g1419" /><g
       id="g1421" /><g
       id="g1423" /><g
       id="g1425" /><g
       id="g1427" /><g
       id="g1429"><path
         d="M 409.17,50.33 V 240.62"
         style="fill:none;stroke:#000000;stroke-width:1.36000001;stroke-linecap:butt;stroke-linejoin:round;stroke-miterlimit:10;stroke-dasharray:none;stroke-opacity:1"
         id="path1431"
         inkscape:connector-curvature="0" /></g><g
       id="g1433" /><g
       id="g1435" /><g
       id="g1437"><text
         transform="matrix(1,0,0,-1,390.35,64.38)"
         style="font-variant:normal;font-weight:normal;font-size:11px;font-family:Helvetica;-inkscape-font-specification:Helvetica;writing-mode:lr-tb;fill:#000000;fill-opacity:1;fill-rule:nonzero;stroke:none"
         id="text1441"><tspan
           x="0 6.4239998"
           y="0"
           sodipodi:role="line"
           id="tspan1439">−3</tspan></text>
<text
         transform="matrix(1,0,0,-1,390.35,111.14)"
         style="font-variant:normal;font-weight:normal;font-size:11px;font-family:Helvetica;-inkscape-font-specification:Helvetica;writing-mode:lr-tb;fill:#000000;fill-opacity:1;fill-rule:nonzero;stroke:none"
         id="text1445"><tspan
           x="0 6.4239998"
           y="0"
           sodipodi:role="line"
           id="tspan1443">−2</tspan></text>
<text
         transform="matrix(1,0,0,-1,390.35,157.89)"
         style="font-variant:normal;font-weight:normal;font-size:11px;font-family:Helvetica;-inkscape-font-specification:Helvetica;writing-mode:lr-tb;fill:#000000;fill-opacity:1;fill-rule:nonzero;stroke:none"
         id="text1449"><tspan
           x="0 6.4239998"
           y="0"
           sodipodi:role="line"
           id="tspan1447">−1</tspan></text>
<text
         transform="matrix(1,0,0,-1,396.78,204.65)"
         style="font-variant:normal;font-weight:normal;font-size:11px;font-family:Helvetica;-inkscape-font-specification:Helvetica;writing-mode:lr-tb;fill:#000000;fill-opacity:1;fill-rule:nonzero;stroke:none"
         id="text1453"><tspan
           x="0"
           y="0"
           id="tspan1451">0</tspan></text>
</g><g
       id="g1455" /><g
       id="g1457"><path
         d="m 405.68,68.33 h 3.49"
         style="fill:none;stroke:#000000;stroke-width:1.36000001;stroke-linecap:butt;stroke-linejoin:round;stroke-miterlimit:10;stroke-dasharray:none;stroke-opacity:1"
         id="path1459"
         inkscape:connector-curvature="0" /><path
         d="m 405.68,115.09 h 3.49"
         style="fill:none;stroke:#000000;stroke-width:1.36000001;stroke-linecap:butt;stroke-linejoin:round;stroke-miterlimit:10;stroke-dasharray:none;stroke-opacity:1"
         id="path1461"
         inkscape:connector-curvature="0" /><path
         d="m 405.68,161.84 h 3.49"
         style="fill:none;stroke:#000000;stroke-width:1.36000001;stroke-linecap:butt;stroke-linejoin:round;stroke-miterlimit:10;stroke-dasharray:none;stroke-opacity:1"
         id="path1463"
         inkscape:connector-curvature="0" /><path
         d="m 405.68,208.6 h 3.49"
         style="fill:none;stroke:#000000;stroke-width:1.36000001;stroke-linecap:butt;stroke-linejoin:round;stroke-miterlimit:10;stroke-dasharray:none;stroke-opacity:1"
         id="path1465"
         inkscape:connector-curvature="0" /></g><g
       id="g1467" /><g
       id="g1469" /><g
       id="g1471" /><g
       id="g1473" /><g
       id="g1475" /><g
       id="g1477" /><g
       id="g1479"><path
         d="M 409.17,50.33 H 705.83"
         style="fill:none;stroke:#000000;stroke-width:1.36000001;stroke-linecap:butt;stroke-linejoin:round;stroke-miterlimit:10;stroke-dasharray:none;stroke-opacity:1"
         id="path1481"
         inkscape:connector-curvature="0" /></g><g
       id="g1483" /><g
       id="g1485" /><g
       id="g1487"><path
         d="m 422.65,46.84 v 3.49"
         style="fill:none;stroke:#000000;stroke-width:1.36000001;stroke-linecap:butt;stroke-linejoin:round;stroke-miterlimit:10;stroke-dasharray:none;stroke-opacity:1"
         id="path1489"
         inkscape:connector-curvature="0" /><path
         d="m 490.08,46.84 v 3.49"
         style="fill:none;stroke:#000000;stroke-width:1.36000001;stroke-linecap:butt;stroke-linejoin:round;stroke-miterlimit:10;stroke-dasharray:none;stroke-opacity:1"
         id="path1491"
         inkscape:connector-curvature="0" /><path
         d="m 557.5,46.84 v 3.49"
         style="fill:none;stroke:#000000;stroke-width:1.36000001;stroke-linecap:butt;stroke-linejoin:round;stroke-miterlimit:10;stroke-dasharray:none;stroke-opacity:1"
         id="path1493"
         inkscape:connector-curvature="0" /><path
         d="m 624.92,46.84 v 3.49"
         style="fill:none;stroke:#000000;stroke-width:1.36000001;stroke-linecap:butt;stroke-linejoin:round;stroke-miterlimit:10;stroke-dasharray:none;stroke-opacity:1"
         id="path1495"
         inkscape:connector-curvature="0" /><path
         d="m 692.34,46.84 v 3.49"
         style="fill:none;stroke:#000000;stroke-width:1.36000001;stroke-linecap:butt;stroke-linejoin:round;stroke-miterlimit:10;stroke-dasharray:none;stroke-opacity:1"
         id="path1497"
         inkscape:connector-curvature="0" /></g><g
       id="g1499" /><g
       id="g1501"><text
         transform="matrix(1,0,0,-1,419.6,36.16)"
         style="font-variant:normal;font-weight:normal;font-size:11px;font-family:Helvetica;-inkscape-font-specification:Helvetica;writing-mode:lr-tb;fill:#000000;fill-opacity:1;fill-rule:nonzero;stroke:none"
         id="text1505"><tspan
           x="0"
           y="0"
           id="tspan1503">0</tspan></text>
<text
         transform="matrix(1,0,0,-1,483.96,36.16)"
         style="font-variant:normal;font-weight:normal;font-size:11px;font-family:Helvetica;-inkscape-font-specification:Helvetica;writing-mode:lr-tb;fill:#000000;fill-opacity:1;fill-rule:nonzero;stroke:none"
         id="text1509"><tspan
           x="0 6.1160002"
           y="0"
           sodipodi:role="line"
           id="tspan1507">10</tspan></text>
<text
         transform="matrix(1,0,0,-1,551.38,36.16)"
         style="font-variant:normal;font-weight:normal;font-size:11px;font-family:Helvetica;-inkscape-font-specification:Helvetica;writing-mode:lr-tb;fill:#000000;fill-opacity:1;fill-rule:nonzero;stroke:none"
         id="text1513"><tspan
           x="0 6.1160002"
           y="0"
           sodipodi:role="line"
           id="tspan1511">20</tspan></text>
<text
         transform="matrix(1,0,0,-1,618.8,36.16)"
         style="font-variant:normal;font-weight:normal;font-size:11px;font-family:Helvetica;-inkscape-font-specification:Helvetica;writing-mode:lr-tb;fill:#000000;fill-opacity:1;fill-rule:nonzero;stroke:none"
         id="text1517"><tspan
           x="0 6.1160002"
           y="0"
           sodipodi:role="line"
           id="tspan1515">30</tspan></text>
<text
         transform="matrix(1,0,0,-1,686.23,36.16)"
         style="font-variant:normal;font-weight:normal;font-size:11px;font-family:Helvetica;-inkscape-font-specification:Helvetica;writing-mode:lr-tb;fill:#000000;fill-opacity:1;fill-rule:nonzero;stroke:none"
         id="text1521"><tspan
           x="0 6.1160002"
           y="0"
           sodipodi:role="line"
           id="tspan1519">40</tspan></text>
</g><g
       id="g1523" /><g
       id="g1525" /><g
       id="g1527" /><g
       id="g1529" /><g
       id="g1531" /><g
       id="g1533"><text
         transform="matrix(1,0,0,-1,488.25,16.54)"
         style="font-variant:normal;font-weight:normal;font-size:14px;font-family:Helvetica;-inkscape-font-specification:Helvetica;writing-mode:lr-tb;fill:#000000;fill-opacity:1;fill-rule:nonzero;stroke:none"
         id="text1537"><tspan
           x="0 11.662 19.445999 26.445999 30.337999 34.23 38.122002 45.905998 57.568001 65.351997 73.136002 77.657997 85.442001 89.334 97.117996 101.78 109.564 113.456"
           y="0"
           sodipodi:role="line"
           id="tspan1535">Max. temperature (</tspan></text>
<text
         transform="matrix(1,0,0,-1,606.37,16.54)"
         style="font-variant:normal;font-weight:normal;font-size:14px;font-family:Symbol;-inkscape-font-specification:Symbol;writing-mode:lr-tb;fill:#000000;fill-opacity:1;fill-rule:nonzero;stroke:none"
         id="text1541"><tspan
           x="0"
           y="0"
           id="tspan1539">°</tspan></text>
<text
         transform="matrix(1,0,0,-1,611.97,16.54)"
         style="font-variant:normal;font-weight:normal;font-size:14px;font-family:Helvetica;-inkscape-font-specification:Helvetica;writing-mode:lr-tb;fill:#000000;fill-opacity:1;fill-rule:nonzero;stroke:none"
         id="text1545"><tspan
           x="0"
           y="0"
           id="tspan1543">C</tspan></text>
<text
         transform="matrix(1,0,0,-1,622.08,16.54)"
         style="font-variant:normal;font-weight:normal;font-size:14px;font-family:Helvetica;-inkscape-font-specification:Helvetica;writing-mode:lr-tb;fill:#000000;fill-opacity:1;fill-rule:nonzero;stroke:none"
         id="text1549"><tspan
           x="0"
           y="0"
           id="tspan1547">)</tspan></text>
</g><g
       id="g1551" /><g
       id="g1553"><text
         transform="matrix(0,1,1,0,381.59,76.23)"
         style="font-variant:normal;font-weight:normal;font-size:14px;font-family:Helvetica;-inkscape-font-specification:Helvetica;writing-mode:lr-tb;fill:#000000;fill-opacity:1;fill-rule:nonzero;stroke:none"
         id="text1557"><tspan
           x="0 9.3380003 17.122 24.906 28.798 31.906 43.568001 51.352001 59.136002 63.028 66.919998 73.919998 81.704002 89.487999 97.272003 105.056 112.84 116.732 121.394 133.84"
           y="0"
           sodipodi:role="line"
           id="tspan1555">Sentiment change (%)</tspan></text>
</g><g
       id="g1559" /><g
       id="g1561" /><g
       id="g1563" /><g
       id="g1565" /><g
       id="g1567" /><g
       id="g1569" /><g
       id="g1571" /><g
       id="g1573" /><g
       id="g1575" /><g
       id="g1577" /><g
       id="g1579"><path
         d="m 409.17,240.67 h 0.58 l 0.58,0.01 h 0.58 l 0.58,0.01 0.58,0.01 h 0.58 l 0.58,0.01 0.58,0.01 h 0.58 l 0.58,0.01 0.58,0.01 0.59,0.01 0.58,0.01 h 0.58 l 0.58,0.01 0.58,0.01 0.58,0.01 0.58,0.01 0.58,0.01 0.58,0.02 0.58,0.01 0.58,0.01 0.58,0.01 0.58,0.02 0.58,0.01 0.58,0.02 0.58,0.01 0.58,0.02 0.58,0.02 0.58,0.02 0.59,0.02 0.58,0.02 0.58,0.02 0.58,0.03 0.58,0.02 0.58,0.03 0.58,0.02 0.58,0.03 0.58,0.03 0.58,0.02 0.58,0.03 0.58,0.03 0.58,0.03 0.58,0.04 0.58,0.03 0.58,0.03 0.58,0.03 0.58,0.03 0.59,0.04 0.58,0.03 0.58,0.03 0.58,0.04 0.58,0.03 0.58,0.03 0.58,0.04 0.58,0.03 0.58,0.04 0.58,0.03 0.58,0.04 0.58,0.03 0.58,0.04 0.58,0.04 0.58,0.04 0.58,0.04 0.58,0.04 0.58,0.04 0.59,0.04 0.58,0.05 0.58,0.05 0.58,0.05 0.58,0.05 0.58,0.06 0.58,0.06 0.58,0.06 0.58,0.06 0.58,0.07 0.58,0.07 0.58,0.07 0.58,0.08 0.58,0.08 0.58,0.08 0.58,0.09 0.58,0.08 0.58,0.1 0.58,0.09 0.59,0.1 0.58,0.1 0.58,0.1 0.58,0.1 0.58,0.11 0.58,0.11 0.58,0.11 0.58,0.12 0.58,0.11 0.58,0.12 0.58,0.12 0.58,0.12 0.58,0.12 0.58,0.13 0.58,0.12 0.58,0.12 0.58,0.13 0.58,0.12 0.59,0.12 0.58,0.13 0.58,0.12 0.58,0.12 0.58,0.12 0.58,0.11 0.58,0.12 0.58,0.11 0.58,0.11 0.58,0.1 0.58,0.11 0.58,0.1 0.58,0.1 0.58,0.1 0.58,0.09 0.58,0.1 0.58,0.09 0.58,0.09 0.59,0.09 0.58,0.09 0.58,0.08 0.58,0.09 0.58,0.09 0.58,0.09 0.58,0.09 0.58,0.09 0.58,0.09 0.58,0.09 0.58,0.09 0.58,0.09 0.58,0.1 0.58,0.09 0.58,0.09 0.58,0.09 0.58,0.09 0.58,0.09 0.58,0.09 0.59,0.08 0.58,0.08 0.58,0.07 0.58,0.08 0.58,0.06 0.58,0.06 0.58,0.06 0.58,0.05 0.58,0.04 0.58,0.04 0.58,0.04 0.58,0.03 0.58,0.02 0.58,0.02 0.58,0.01 0.58,0.01 0.58,0.01 0.58,0.01 h 0.59 0.58 0.58 0.58 0.58 l 0.58,0.01 h 0.58 l 0.58,0.01 h 0.58 l 0.58,0.01 0.58,0.01 0.58,0.02 0.58,0.02 0.58,0.01 0.58,0.03 0.58,0.02 0.58,0.03 0.58,0.03 0.58,0.03 0.59,0.04 0.58,0.03 0.58,0.04 0.58,0.04 0.58,0.04 0.58,0.04 0.58,0.04 0.58,0.04 0.58,0.04 0.58,0.05 0.58,0.04 0.58,0.05 0.58,0.04 0.58,0.05 0.58,0.05 0.58,0.05 0.58,0.04 0.58,0.05 0.59,0.05 0.58,0.05 0.58,0.06 0.58,0.05 0.58,0.05 0.58,0.05 0.58,0.06 0.58,0.05 0.58,0.05 0.58,0.06 0.58,0.05 0.58,0.05 0.58,0.06 0.58,0.05 0.58,0.05 0.58,0.05 0.58,0.05 0.58,0.05 0.59,0.05 0.58,0.05 0.58,0.05 0.58,0.05 0.58,0.04 0.58,0.05 0.58,0.05 0.58,0.04 0.58,0.05 0.58,0.05 0.58,0.04 0.58,0.05 0.58,0.04 0.58,0.05 0.58,0.04 0.58,0.05 0.58,0.05 0.58,0.04 0.58,0.05 0.59,0.04 0.58,0.05 0.58,0.04 0.58,0.05 0.58,0.04 0.58,0.05 0.58,0.04 0.58,0.04 0.58,0.05 0.58,0.04 0.58,0.04 0.58,0.04 0.58,0.04 0.58,0.04 0.58,0.04 0.58,0.04 0.58,0.04 0.58,0.03 0.59,0.04 0.58,0.03 0.58,0.04 0.58,0.03 0.58,0.03 0.58,0.04 0.58,0.03 0.58,0.03 0.58,0.03 0.58,0.04 0.58,0.03 0.58,0.03 0.58,0.04 0.58,0.03 0.58,0.04 0.58,0.04 0.58,0.03 0.58,0.04 0.59,0.05 0.58,0.04 0.58,0.05 0.58,0.04 0.58,0.05 0.58,0.05 0.58,0.06 0.58,0.05 0.58,0.06 0.58,0.06 0.58,0.07 0.58,0.06 0.58,0.07 0.58,0.07 0.58,0.07 0.58,0.08 0.58,0.08 0.58,0.08 0.58,0.08 0.59,0.09 0.58,0.09 0.58,0.09 0.58,0.1 0.58,0.1 0.58,0.1 0.58,0.1 0.58,0.11 0.58,0.11 0.58,0.11 0.58,0.12 0.58,0.12 0.58,0.12 0.58,0.12 0.58,0.12 0.58,0.13 0.58,0.12 0.58,0.13 0.59,0.13 0.58,0.13 0.58,0.12 0.58,0.13 0.58,0.13 0.58,0.13 0.58,0.12 0.58,0.12 0.58,0.12 0.58,0.12 0.58,0.11 0.58,0.11 0.58,0.11 0.58,0.1 0.58,0.09 0.58,0.09 0.58,0.08 0.58,0.08 0.58,0.07 0.59,0.06 0.58,0.06 0.58,0.05 0.58,0.04 0.58,0.03 0.58,0.03 0.58,0.02 0.58,0.02 0.58,0.01 h 0.58 0.58 0.58 l 0.58,-0.01 0.58,-0.01 0.58,-0.02 0.58,-0.02 0.58,-0.02 0.58,-0.02 0.59,-0.03 0.58,-0.03 0.58,-0.03 0.58,-0.03 0.58,-0.03 0.58,-0.03 0.58,-0.04 0.58,-0.04 0.58,-0.04 0.58,-0.04 0.58,-0.05 0.58,-0.05 0.58,-0.05 0.58,-0.05 0.58,-0.06 0.58,-0.07 0.58,-0.06 0.58,-0.08 0.59,-0.07 0.58,-0.09 0.58,-0.08 0.58,-0.1 0.58,-0.1 0.58,-0.1 0.58,-0.1 0.58,-0.12 0.58,-0.11 0.58,-0.12 0.58,-0.13 0.58,-0.12 0.58,-0.13 0.58,-0.13 0.58,-0.13 0.58,-0.13 0.58,-0.13 0.58,-0.13 0.58,-0.13 0.59,-0.13 0.58,-0.12 0.58,-0.12 0.58,-0.12 0.58,-0.11 0.58,-0.11 0.58,-0.11 0.58,-0.1 0.58,-0.09 0.58,-0.09 0.58,-0.09 0.58,-0.08 0.58,-0.08 0.58,-0.08 0.58,-0.07 0.58,-0.06 0.58,-0.07 0.58,-0.06 0.59,-0.05 0.58,-0.05 0.58,-0.05 0.58,-0.05 0.58,-0.04 0.58,-0.04 0.58,-0.04 0.58,-0.04 0.58,-0.04 0.58,-0.03 0.58,-0.04 0.58,-0.03 0.58,-0.04 0.58,-0.04 0.58,-0.04 0.58,-0.05 0.58,-0.05 0.58,-0.05 0.59,-0.06 0.58,-0.07 0.58,-0.08 0.58,-0.08 0.58,-0.1 0.58,-0.1 0.58,-0.11 0.58,-0.13 0.58,-0.13 0.58,-0.15 0.58,-0.16 0.58,-0.17 0.58,-0.19 0.58,-0.19 0.58,-0.2 0.58,-0.22 0.58,-0.23 0.58,-0.23 0.58,-0.25 0.59,-0.25 0.58,-0.26 0.58,-0.27 0.58,-0.27 0.58,-0.28 0.58,-0.29 0.58,-0.29 0.58,-0.29 0.58,-0.29 0.58,-0.3 0.58,-0.29 0.58,-0.3 0.58,-0.3 0.58,-0.29 0.58,-0.29 0.58,-0.29 0.58,-0.29 0.58,-0.28 0.59,-0.28 0.58,-0.27 0.58,-0.26 0.58,-0.26 0.58,-0.25 0.58,-0.25 0.58,-0.23 0.58,-0.23 0.58,-0.22 0.58,-0.21 0.58,-0.21 0.58,-0.19 0.58,-0.19 0.58,-0.17 0.58,-0.17 0.58,-0.16 0.58,-0.15 0.58,-0.14 0.58,-0.13 0.59,-0.13 0.58,-0.11 0.58,-0.11 0.58,-0.1 0.58,-0.09 0.58,-0.09 0.58,-0.08 0.58,-0.08 0.58,-0.06 0.58,-0.07 0.58,-0.05 0.58,-0.06 0.58,-0.04 0.58,-0.05 0.58,-0.04 0.58,-0.03 0.58,-0.03 0.58,-0.03 0.59,-0.03 0.58,-0.02 0.58,-0.02 0.58,-0.02 0.58,-0.02 0.58,-0.02 0.58,-0.01 0.58,-0.01 0.58,-0.01 0.58,-0.02 0.58,-0.01 h 0.58 l 0.58,-0.01 0.58,-0.01 0.58,-0.01 0.58,-0.01 h 0.58 l 0.58,-0.01 h 0.59 l 0.58,-0.01 0.58,-0.01 h 0.58 v -0.06 h -0.58 -0.58 -0.58 -0.59 -0.58 -0.58 -0.58 -0.58 -0.58 -0.58 -0.58 -0.58 -0.58 -0.58 -0.58 -0.58 -0.58 -0.58 -0.58 -0.58 -0.58 -0.59 -0.58 -0.58 -0.58 -0.58 -0.58 -0.58 -0.58 -0.58 -0.58 -0.58 -0.58 -0.58 -0.58 -0.58 -0.58 -0.58 -0.58 -0.59 -0.58 -0.58 -0.58 -0.58 -0.58 -0.58 -0.58 -0.58 -0.58 -0.58 -0.58 -0.58 -0.58 -0.58 -0.58 -0.58 -0.58 -0.58 -0.59 -0.58 -0.58 -0.58 -0.58 -0.58 -0.58 -0.58 -0.58 -0.58 -0.58 -0.58 -0.58 -0.58 -0.58 -0.58 -0.58 -0.58 -0.59 -0.58 -0.58 -0.58 -0.58 -0.58 -0.58 -0.58 -0.58 -0.58 -0.58 -0.58 -0.58 -0.58 -0.58 -0.58 -0.58 -0.58 -0.58 -0.59 -0.58 -0.58 -0.58 -0.58 -0.58 -0.58 -0.58 -0.58 -0.58 -0.58 -0.58 -0.58 -0.58 -0.58 -0.58 -0.58 -0.58 -0.59 -0.58 -0.58 -0.58 -0.58 -0.58 -0.58 -0.58 -0.58 -0.58 -0.58 -0.58 -0.58 -0.58 -0.58 -0.58 -0.58 -0.58 -0.59 -0.58 -0.58 -0.58 -0.58 -0.58 -0.58 -0.58 -0.58 -0.58 -0.58 -0.58 -0.58 -0.58 -0.58 -0.58 -0.58 -0.58 -0.58 -0.59 -0.58 -0.58 -0.58 -0.58 -0.58 -0.58 -0.58 -0.58 -0.58 -0.58 -0.58 -0.58 -0.58 -0.58 -0.58 -0.58 -0.58 -0.59 -0.58 -0.58 -0.58 -0.58 -0.58 -0.58 -0.58 -0.58 -0.58 -0.58 -0.58 -0.58 -0.58 -0.58 -0.58 -0.58 -0.58 -0.59 -0.58 -0.58 -0.58 -0.58 -0.58 -0.58 -0.58 -0.58 -0.58 -0.58 -0.58 -0.58 -0.58 -0.58 -0.58 -0.58 -0.58 -0.58 -0.59 -0.58 -0.58 -0.58 -0.58 -0.58 -0.58 -0.58 -0.58 -0.58 -0.58 -0.58 -0.58 -0.58 -0.58 -0.58 -0.58 -0.58 -0.59 -0.58 -0.58 -0.58 -0.58 -0.58 -0.58 -0.58 -0.58 -0.58 -0.58 -0.58 -0.58 -0.58 -0.58 -0.58 -0.58 -0.58 -0.58 -0.59 -0.58 -0.58 -0.58 -0.58 -0.58 -0.58 -0.58 -0.58 -0.58 -0.58 -0.58 -0.58 -0.58 -0.58 -0.58 -0.58 -0.58 -0.59 -0.58 -0.58 -0.58 -0.58 -0.58 -0.58 -0.58 -0.58 -0.58 -0.58 -0.58 -0.58 -0.58 -0.58 -0.58 -0.58 -0.58 -0.59 -0.58 -0.58 -0.58 -0.58 -0.58 -0.58 -0.58 -0.58 -0.58 -0.58 -0.58 -0.58 -0.58 -0.58 -0.58 -0.58 -0.58 -0.58 -0.59 -0.58 -0.58 -0.58 -0.58 -0.58 -0.58 -0.58 -0.58 -0.58 -0.58 -0.58 -0.58 -0.58 -0.58 -0.58 -0.58 -0.58 -0.59 -0.58 -0.58 -0.58 -0.58 -0.58 -0.58 -0.58 -0.58 -0.58 -0.58 -0.58 -0.58 -0.58 -0.58 -0.58 -0.58 -0.58 -0.59 -0.58 -0.58 -0.58 -0.58 -0.58 -0.58 -0.58 -0.58 -0.58 -0.58 -0.58 -0.58 -0.58 -0.58 -0.58 -0.58 -0.58 -0.58 -0.59 -0.58 -0.58 -0.58 -0.58 -0.58 -0.58 -0.58 -0.58 -0.58 -0.58 -0.58 -0.58 -0.58 -0.58 -0.58 -0.58 -0.58 -0.59 -0.58 -0.58 -0.58 -0.58 -0.58 -0.58 -0.58 -0.58 -0.58 -0.58 -0.58 -0.58 -0.58 -0.58 -0.58 -0.58 -0.58 -0.58 -0.59 -0.58 -0.58 -0.58 -0.58 -0.58 -0.58 -0.58 -0.58 -0.58 -0.58 -0.58 -0.58 -0.58 -0.58 -0.58 -0.58 -0.58 -0.59 -0.58 -0.58 -0.58 -0.58 -0.58 -0.58 -0.58 -0.58 -0.58 -0.58 -0.58 -0.58 -0.58 -0.58 -0.58 -0.58 -0.58 -0.59 -0.58 -0.58 -0.58 -0.58 -0.58 -0.58 -0.58 -0.58 -0.58 -0.58 -0.58 -0.58 -0.58 -0.58 -0.58 -0.58 -0.58 -0.58 -0.59 -0.58 -0.58 -0.58 -0.58 -0.58 -0.58 -0.58 -0.58 -0.58 -0.58 -0.58 -0.58 -0.58 -0.58 -0.58 -0.58 -0.58 -0.59 -0.58 -0.58 -0.58 -0.58 -0.58 -0.58 -0.58 -0.58 -0.58 -0.58 -0.58 -0.58 -0.58 -0.58 -0.58 -0.58 -0.58 -0.59 -0.58 -0.58 -0.58 -0.58 -0.58 -0.58 -0.58 -0.58 -0.58 -0.58 -0.58 -0.58 -0.58 -0.58 -0.58 -0.58 -0.58 -0.58 -0.59 -0.58 -0.58 -0.58 -0.58 -0.58 -0.58 -0.58 -0.58 -0.58 -0.58 -0.58 z"
         style="fill:#bfbfbf;fill-opacity:0.50199998;fill-rule:nonzero;stroke:#7f7f7f;stroke-width:1.07000005;stroke-linecap:round;stroke-linejoin:round;stroke-miterlimit:10;stroke-dasharray:none;stroke-opacity:1"
         id="path1581"
         inkscape:connector-curvature="0" /></g><g
       id="g1583" /><g
       id="g1585" /><g
       id="g1587" /><g
       id="g1589"><text
         transform="matrix(1,0,0,-1,184.45,558.77)"
         style="font-variant:normal;font-weight:bold;font-size:16px;font-family:Helvetica;-inkscape-font-specification:Helvetica-Bold;writing-mode:lr-tb;fill:#000000;fill-opacity:1;fill-rule:nonzero;stroke:none"
         id="text1593"><tspan
           x="0"
           y="0"
           id="tspan1591">a</tspan></text>
<text
         transform="matrix(1,0,0,-1,4.89,270.77)"
         style="font-variant:normal;font-weight:bold;font-size:16px;font-family:Helvetica;-inkscape-font-specification:Helvetica-Bold;writing-mode:lr-tb;fill:#000000;fill-opacity:1;fill-rule:nonzero;stroke:none"
         id="text1597"><tspan
           x="0"
           y="0"
           id="tspan1595">b</tspan></text>
<text
         transform="matrix(1,0,0,-1,364.45,270.77)"
         style="font-variant:normal;font-weight:bold;font-size:16px;font-family:Helvetica;-inkscape-font-specification:Helvetica-Bold;writing-mode:lr-tb;fill:#000000;fill-opacity:1;fill-rule:nonzero;stroke:none"
         id="text1601"><tspan
           x="0"
           y="0"
           id="tspan1599">c</tspan></text>
</g><g
       id="g1603" /><g
       id="g1605" /><g
       id="g1607" /><g
       id="g1609" /><g
       id="g1611" /><g
       id="g1613" /><g
       id="g1615" /><g
       id="g1617" /><g
       id="g1619" /><g
       id="g1621" /><g
       id="g1623" /><g
       id="g1625" /><g
       id="g1627" /><g
       id="g1629" /><g
       id="g1631" /><g
       id="g1633" /><g
       id="g1635" /><g
       id="g1637" /><g
       id="g1639" /><g
       id="g1641" /><g
       id="g1643" /><g
       id="g1645" /><g
       id="g1647" /><g
       id="g1649" /><g
       id="g1651" /><g
       id="g1653" /><g
       id="g1655" /><g
       id="g1657" /><g
       id="g1659" /><g
       id="g1661" /><g
       id="g1663" /><g
       id="g1665" /><g
       id="g1667" /><g
       id="g1669" /><g
       id="g1671" /><g
       id="g1673" /><g
       id="g1675" /><g
       id="g1677" /><g
       id="g1679" /><g
       id="g1681" /><g
       id="g1683" /><g
       id="g1685" /><g
       id="g1687" /><g
       id="g1689" /></g></svg>